<svg width="800" height="726" viewBox="0 0 800 726" fill="none" xmlns="http://www.w3.org/2000/svg">
<path fill-rule="evenodd" clip-rule="evenodd" d="M85.8113 519.875C102.118 435.901 267.118 483.74 375.29 457.779C483.462 431.819 611.439 310.915 696.137 370.14C780.834 429.364 690.717 572.527 496.458 604.834C302.198 637.141 69.505 603.848 85.8113 519.875Z" fill="#F2F2F2"/>
<g opacity="0.5">
<path fill-rule="evenodd" clip-rule="evenodd" d="M128.908 127.673C127.335 129.243 127.946 134.825 127.913 136.89C127.862 140.106 128.063 143.293 128.331 146.497C128.512 148.642 129.527 169.114 132.353 167.542C133.946 166.656 132.947 160.734 132.944 158.861C132.938 154.696 132.764 150.542 132.487 146.387C132.229 142.529 132.067 138.717 132.215 134.852C132.251 133.908 133.134 123.439 128.908 127.673" fill="#89C5CC"/>
<path fill-rule="evenodd" clip-rule="evenodd" d="M197.409 125.149C183.896 125.256 170.388 125.923 156.881 126.331C150.381 126.528 143.886 126.778 137.394 127.138C135.181 127.261 130.436 126.553 128.593 127.731C124.501 130.349 131.1 130.96 132.859 130.896C159.59 129.927 186.329 128.651 213.082 128.59C226.206 128.561 239.323 128.935 252.448 128.851C257.465 128.819 263.02 126.657 264.287 132.497C265.717 139.087 264.074 146.424 263.627 153.045C263.329 157.466 263.435 161.794 263.634 166.211C263.762 169.04 263.429 172.229 263.93 175.005C264.411 177.679 266.333 179.282 268.095 176.287C269.148 174.498 268.624 170.079 268.694 168.005C268.788 165.213 268.7 162.421 268.7 159.629C268.699 152.812 269.661 146.022 269.534 139.206C269.452 134.811 269.219 126.844 263.676 125.788C257.572 124.625 250.069 125.795 243.822 125.723C228.344 125.547 212.892 125.028 197.409 125.149" fill="#89C5CC"/>
<path fill-rule="evenodd" clip-rule="evenodd" d="M160.174 167.786C155.078 167.786 149.982 167.817 144.887 167.901C140.517 167.973 133.647 167.062 129.58 168.626C126.795 169.696 126.056 172.805 129.58 173.633C133.423 174.536 139.216 173.059 143.237 172.988C163.401 172.632 183.759 172.168 203.894 173.444C222.762 174.638 241.993 175.796 260.889 174.536C262.478 174.429 270.587 174.107 266.887 171.067C264.728 169.293 255.98 170.46 253.174 170.375C243.28 170.077 233.376 170.011 223.485 169.636C213.723 169.265 204.004 168.167 194.238 167.896C182.893 167.58 171.523 167.786 160.174 167.786" fill="#89C5CC"/>
<path fill-rule="evenodd" clip-rule="evenodd" d="M155.075 138.804C163.017 139.151 170.875 150.669 162.839 156.236C155.3 161.459 141.172 155.735 145.364 145.606C144.761 147.071 146.126 144.015 146.143 143.995C146.94 143.056 148.371 142.016 149.354 141.276C150.478 140.428 151.649 139.496 153.005 139.071C153.895 138.793 153.755 139.841 155.075 138.804M151.207 134.65C147.49 136.101 145.794 137.738 143.239 140.701C141.472 142.751 139.218 143.83 139.238 146.6C139.243 147.214 140.03 147.888 140.167 148.478C140.355 149.295 140.137 150.34 140.286 151.208C141.824 160.157 152.501 163.174 160.317 161.484C167.125 160.013 172.217 153.477 170.64 146.371C169.052 139.217 158.444 131.82 151.207 134.65" fill="#89C5CC"/>
<path fill-rule="evenodd" clip-rule="evenodd" d="M147.896 147.143C147.896 150.362 152.982 150.362 152.982 147.143C152.982 143.96 147.896 143.823 147.896 147.143" fill="#89C5CC"/>
<path fill-rule="evenodd" clip-rule="evenodd" d="M154.259 146.491C154.259 149.05 158.299 149.05 158.299 146.491C158.299 143.962 154.259 143.854 154.259 146.491" fill="#89C5CC"/>
<path fill-rule="evenodd" clip-rule="evenodd" d="M155.51 151.767C154.216 152.265 152.575 151.233 151.513 151.913C149.632 153.117 151.517 154.207 152.526 154.691C157.066 156.87 157.874 150.862 155.51 151.767" fill="#89C5CC"/>
<path fill-rule="evenodd" clip-rule="evenodd" d="M224.85 144.632C224.715 144.69 224.233 144.894 224.85 144.632ZM205.078 141.743C201.68 142.51 198.811 145.683 195.119 145.259C192.289 144.933 190.374 142.203 187.58 141.806C184.007 141.298 174.283 149.449 179.396 150.848C182.379 151.664 184.033 146.213 186.669 145.923C188.753 145.694 191.588 148.25 193.748 148.614C197.778 149.293 200.546 147.074 204.084 145.642C207.928 144.086 210.115 145.487 213.459 147.216C216.098 148.581 218.583 149.47 221.603 148.906C224.437 148.378 227.997 145.464 230.85 145.763C233.644 146.056 235.638 148.972 238.512 149.242C239.696 149.354 241.46 149.757 241.261 147.929C241.102 146.465 239.469 146.713 238.447 146.181C235.819 144.813 233.361 142.389 230.189 142.596C227.804 142.751 225.632 144.428 223.433 145.23C216.233 147.855 212.186 140.149 205.078 141.743" fill="#89C5CC"/>
<path fill-rule="evenodd" clip-rule="evenodd" d="M211.093 188.111C197.204 188.239 183.268 188.445 169.419 189.558C166.135 189.822 132.608 192.988 132.672 193.216C132.789 193.637 137.102 194.282 137.075 194.381C136.784 193.661 136.12 193.362 135.082 193.487C166.88 193.487 198.576 190.64 230.416 191.152C238.416 191.28 246.446 191.227 254.441 191.479C256.437 191.542 261.382 192.972 262.949 192.071C267.063 189.706 259.59 189.433 258.352 189.334C242.683 188.08 226.805 187.954 211.093 188.111" fill="#69A1AC"/>
<path fill-rule="evenodd" clip-rule="evenodd" d="M128.556 194.86C126.479 196.941 128.391 204.43 128.473 207.245C128.591 211.314 128.494 215.413 128.851 219.471C129.259 224.108 129.891 229.047 131.107 233.545C131.777 236.023 134.129 239.962 135.061 235.459C135.726 232.243 134.716 227.976 134.364 224.7C133.894 220.317 133.78 215.992 133.763 211.588C133.747 207.75 133.673 203.897 133.358 200.071C133.195 198.085 132.196 191.239 128.556 194.86" fill="#69A1AC"/>
<path fill-rule="evenodd" clip-rule="evenodd" d="M180.794 232.998C170.938 233.168 161.061 233.4 151.222 234.015C147.189 234.268 143.16 234.644 139.142 235.07C138.322 235.157 129.247 235.526 133.302 238.875C135.132 240.387 142.661 238.296 145.148 238.078C149.33 237.712 153.511 237.473 157.706 237.296C167.424 236.883 177.172 236.519 186.9 236.688C204.667 236.996 222.319 237.134 240.09 236.737C242.615 236.681 262.396 237.21 263.068 234.583C263.609 232.466 256.535 233.437 255.246 233.475C250.514 233.617 245.782 233.584 241.049 233.56C220.998 233.457 200.83 232.66 180.794 232.998" fill="#69A1AC"/>
<path fill-rule="evenodd" clip-rule="evenodd" d="M259.719 191.347C260.032 200.122 261.527 208.887 262.005 217.689C262.223 221.712 262.48 225.732 262.677 229.757C262.74 231.056 262.217 234.184 263.753 234.931C265.859 235.955 266.142 233.891 266.536 232.495C267.675 228.462 266.905 223.224 266.802 219.081C266.702 215.07 266.695 211.051 266.399 207.047C266.096 202.957 265.272 198.943 264.89 194.867C264.728 193.143 265.294 190.274 263.463 189.204C261.881 188.279 259.651 189.445 259.719 191.347" fill="#69A1AC"/>
<path fill-rule="evenodd" clip-rule="evenodd" d="M162.845 205.945C162.883 205.973 162.92 206.003 162.957 206.032C162.92 206.003 162.882 205.974 162.845 205.945M154.469 203.345C157.593 204.237 160.158 203.904 163.141 206.178C165.614 208.063 168.151 210.821 168.972 213.869C170.867 220.912 164.442 224.771 158.418 224.847C152.248 224.925 143.116 223.494 143.432 215.585C143.674 209.509 148.111 203.581 154.469 203.345M154.689 199.365C146.59 199.768 140.057 208.863 140.128 216.519C140.212 225.798 150.726 228.188 158.194 228.253C166.623 228.325 175.029 222.505 172.77 213.026C170.96 205.431 162.478 198.96 154.689 199.365" fill="#69A1AC"/>
<path fill-rule="evenodd" clip-rule="evenodd" d="M146.542 211.823C146.542 214.411 150.63 214.411 150.63 211.823C150.63 209.265 146.542 209.155 146.542 211.823" fill="#69A1AC"/>
<path fill-rule="evenodd" clip-rule="evenodd" d="M155.117 210.687C155.117 213.295 159.238 213.295 159.238 210.687C159.238 208.109 155.117 207.998 155.117 210.687" fill="#69A1AC"/>
<path fill-rule="evenodd" clip-rule="evenodd" d="M150.39 216.589C147.73 219.245 157.077 223.903 159.282 220.207C161.092 217.172 157.15 218.178 155.752 218.014C154.234 217.835 151.63 215.353 150.39 216.589" fill="#69A1AC"/>
<path fill-rule="evenodd" clip-rule="evenodd" d="M225.125 210.741C224.869 210.849 224.869 210.849 225.125 210.741ZM190.023 206.416C187.329 206.921 178.487 209.904 178.367 213.101C178.149 218.911 186.809 212.96 188.689 212.196C193.797 210.12 196.481 214.354 201.612 214.578C206.069 214.772 210.167 210.958 214.365 211.409C218.763 211.881 220.879 216.561 225.957 214.076C228.643 212.762 228.576 210.736 225.56 210.545C223.737 210.429 222.485 211.183 220.585 210.398C217.613 209.173 216.416 207.177 212.86 207.494C210.176 207.733 207.751 209.246 205.131 209.831C199.133 211.171 195.806 205.333 190.023 206.416" fill="#69A1AC"/>
<path fill-rule="evenodd" clip-rule="evenodd" d="M245.818 213.263C245.633 213.341 245.633 213.341 245.818 213.263ZM246.498 210.844C246.528 210.857 246.731 211.139 246.498 210.844ZM243.409 208.997C243.293 209.087 243.293 209.087 243.409 208.997ZM243.477 208.974C244.076 209.333 248.891 212.625 245.393 213.401C243.618 213.794 242.149 210.222 243.477 208.974M241.882 205.327C234.169 208.844 242.469 221.429 248.523 216.316C251.07 214.164 251.405 209.815 248.927 207.573C247.442 206.23 243.898 204.406 241.882 205.327" fill="#69A1AC"/>
<path fill-rule="evenodd" clip-rule="evenodd" d="M169.477 254.921C159.852 254.924 150.143 254.722 140.531 255.292C138.914 255.388 132.752 255.081 131.918 256.772C130.393 259.864 136.734 258.329 137.655 258.236C156.793 256.321 176.784 257.423 195.985 257.969C211.689 258.415 227.308 258.693 242.993 259.502C247.116 259.715 251.235 259.95 255.355 260.198C256.698 260.279 260.077 261.169 260.361 259.024C260.622 257.04 256.407 257.488 255.354 257.432C246.979 256.991 238.61 256.53 230.237 256.058C210.085 254.922 189.661 254.917 169.477 254.921" fill="#89C5CC"/>
<path fill-rule="evenodd" clip-rule="evenodd" d="M131.609 258.36C129.812 260.147 130.654 266.971 130.604 269.227C130.517 273.171 130.33 277.113 130.247 281.057C130.16 285.178 130.281 289.319 130.524 293.435C130.627 295.163 132.045 303.515 134.278 298.736C135.276 296.6 134.254 290.651 134.269 288.23C134.297 283.826 134.534 279.44 134.753 275.041C134.942 271.26 134.949 267.475 135.114 263.693C135.166 262.488 135.309 254.65 131.609 258.36" fill="#89C5CC"/>
<path fill-rule="evenodd" clip-rule="evenodd" d="M261.98 293.596C252.613 294.556 243.096 294.102 233.694 294.811C225.591 295.422 217.495 295.672 209.371 295.844C190.975 296.233 172.547 296.611 154.204 298.144C150.024 298.493 145.848 298.864 141.657 299.051C139.561 299.145 130.764 298.191 130.109 300.401C128.993 304.164 138.4 302.675 140.429 302.616C144.891 302.487 149.332 302.165 153.781 301.826C172.485 300.401 191.259 299.975 210.003 299.382C220.196 299.061 230.319 298.315 240.49 297.636C245.56 297.298 250.643 297.287 255.712 296.959C257.039 296.874 261.734 297.043 262.688 295.975C263.343 295.242 263.509 293.453 261.98 293.596" fill="#89C5CC"/>
<path fill-rule="evenodd" clip-rule="evenodd" d="M258.805 259.001C259.126 267.983 259.634 276.958 259.937 285.94C260.029 288.641 259.212 293.483 260.717 295.865C263.135 299.695 265.023 295.641 265.466 293.254C266.864 285.721 265.361 277.4 264.97 269.821C264.822 266.929 265.72 260.493 264.322 257.905C262.991 255.44 258.686 255.688 258.805 259.001" fill="#89C5CC"/>
<path fill-rule="evenodd" clip-rule="evenodd" d="M243.08 271.793C246.669 272.765 247.193 280.567 243.144 281.144C237.117 282.003 239.753 273.402 243.08 271.793M242.075 268.691C240.98 268.657 238.453 268.355 237.779 269.246C237.214 269.992 237.785 271.564 237.719 272.275C237.482 274.813 235.418 276.279 236.34 279.275C236.967 281.309 238.644 283.221 240.688 283.927C251.473 287.655 251.342 266.816 242.075 268.691" fill="#89C5CC"/>
<path fill-rule="evenodd" clip-rule="evenodd" d="M144.702 270.091C144.675 270.126 144.648 270.16 144.621 270.194C144.648 270.16 144.675 270.126 144.702 270.091M153.173 265.584C153.13 265.224 153.088 264.863 153.046 264.502C158.893 267.262 163.547 272.397 161.605 279.289C160.123 284.546 154.771 286.411 149.784 285.113C144.263 283.676 141.625 279.126 143.114 273.538C143.8 270.961 145.909 267.496 148.635 266.668C149.904 266.282 152.71 267.265 153.173 265.584M149.753 263.402C148.274 263.501 146.834 264.118 145.627 264.96C146.757 264.005 148.263 263.435 149.753 263.402M149.795 260.006C146.141 260.117 143.747 262.329 141.58 264.986C140.9 265.82 138.6 268.03 138.885 269.154C139.11 270.042 139.699 271.341 140.94 270.351C134.442 283.301 151.228 294.346 161.475 285.341C171.038 276.937 161.55 259.612 149.795 260.006" fill="#89C5CC"/>
<path fill-rule="evenodd" clip-rule="evenodd" d="M146.476 272.034C146.476 273.759 149.153 273.759 149.153 272.034C149.153 270.31 146.476 270.31 146.476 272.034" fill="#89C5CC"/>
<path fill-rule="evenodd" clip-rule="evenodd" d="M151.044 272.329C151.044 274.082 153.764 274.082 153.764 272.329C153.764 270.576 151.044 270.576 151.044 272.329" fill="#89C5CC"/>
<path fill-rule="evenodd" clip-rule="evenodd" d="M153.118 278.484C151.845 278.588 147.187 278.155 146.369 279.27C145.003 281.132 147.184 281.197 148.255 281.399C149.22 281.58 153.413 281.477 154.004 280.621C154.527 279.864 154.405 278.375 153.118 278.484" fill="#89C5CC"/>
<path fill-rule="evenodd" clip-rule="evenodd" d="M209.241 273.654C209.022 273.744 209.022 273.744 209.241 273.654ZM191.64 272.367C188.772 272.577 186.344 274.227 183.602 274.885C180.676 275.588 179.409 274.295 176.748 273.449C173.98 272.57 172.011 272.917 169.786 274.808C168.526 275.879 165.76 278.344 166.548 280.247C168.352 284.603 172.436 277.516 174.357 277.187C177.353 276.673 180.019 279.293 183.475 278.543C186.606 277.865 189.384 275.715 192.654 275.691C195.389 275.672 197.966 277.168 200.666 277.53C204.788 278.083 207.494 276.62 211.304 275.533C214.608 274.592 216.924 275.834 220.032 276.879C221.452 277.356 226.191 279.092 225.319 275.944C225.072 275.055 218.827 273.465 217.859 273.159C214.445 272.081 212.283 272.501 209.03 273.741C206.318 274.776 204.036 275.279 201.128 274.71C197.924 274.083 195.01 272.111 191.64 272.367" fill="#89C5CC"/>
</g>
<g opacity="0.5">
<path fill-rule="evenodd" clip-rule="evenodd" d="M323.575 128.012C324.038 118.056 324.674 108.113 325.009 98.1506C325.176 93.2138 325.306 88.2766 325.432 83.339C325.459 82.2395 325.488 81.1405 325.513 80.041C325.594 76.3058 325.151 76.0002 328.91 75.6686C345.679 74.1885 362.515 73.6979 379.304 72.3586C399.553 70.7435 419.907 69.6283 440.213 69.1284C449.236 68.9058 458.298 68.4449 467.323 68.7254C469.322 68.7876 473.247 68.2673 474.035 69.8216C474.375 70.4931 473.661 72.8038 473.571 73.5787C473.288 75.9993 473.024 78.4282 472.861 80.8609C471.901 95.2083 472.473 109.917 475.251 124.047C468.734 120.372 460.5 117.211 452.904 117.839C445.16 118.478 439.367 122.952 433.168 127.071C429.662 129.4 428.481 130.013 424.983 127.756C421.968 125.811 419.116 123.588 416.272 121.405C411.883 118.038 407.741 114.386 403.485 110.855C395.66 104.363 384.878 95.1225 374.07 97.8431C366.348 99.787 359.218 104.031 352.516 108.184C342.558 114.355 333.545 121.912 323.575 128.012M457.779 64.3039C419.306 64.3039 381.121 68.0335 342.756 70.0512C338.749 70.2617 334.756 70.5719 330.764 70.9573C328.103 71.2142 321.596 70.1356 319.852 72.4092C318.688 73.926 319.688 74.1537 319.852 75.5949C320.058 77.4113 319.936 79.5634 319.883 81.486C319.755 86.1185 319.62 90.7506 319.515 95.3836C319.118 112.894 318.869 130.4 319.578 147.906C319.733 151.723 321.124 157.009 320.363 160.719C319.812 163.405 317.97 165.039 322.218 165.536C326.398 166.024 331.509 164.782 335.693 164.384C339.901 163.983 344.108 163.549 348.321 163.201C366.638 161.692 385.133 161.92 403.499 161.418C422.029 160.912 440.567 160.88 459.104 160.87C466.86 160.865 475.723 161.301 483.291 159.167C485.953 158.416 486.384 158.046 485.727 155.404C485.603 154.903 484.799 154.718 484.563 153.811C484.242 152.578 484.407 151.08 484.332 149.796C484.087 145.604 484.001 141.405 483.804 137.21C483.474 130.201 482.266 123.399 481.372 116.461C480.341 108.449 480.394 100.313 480.373 92.2484C480.361 87.7749 480.476 83.3163 480.835 78.8553C481.066 75.9942 482.475 71.7224 481.76 69.0542C481.404 67.7256 480.822 66.6721 479.439 66.1003C478.563 65.7377 477.826 66.0215 476.96 65.9297C475.933 65.8207 475.292 65.6765 474.062 65.3978C468.789 64.2028 463.151 64.3039 457.779 64.3039" fill="#69A1AC"/>
<path fill-rule="evenodd" clip-rule="evenodd" d="M436.487 83.3523C436.484 86.1406 436.049 90.2552 437.335 92.8807C438.965 96.2111 441.005 95.1701 441.545 92.0405C441.855 90.2473 441.847 84.9405 441.271 83.3523C440.456 81.1042 436.487 79.573 436.487 83.3523" fill="#89C5CC"/>
<path fill-rule="evenodd" clip-rule="evenodd" d="M441.165 84.4292C438.548 84.5215 430.924 83.8932 429.153 85.998C426.115 89.608 431.404 90.2475 433.674 90.0453C436.302 89.8116 444.423 90.382 446.183 88.2748C449.127 84.7496 443.224 84.3541 441.165 84.4292" fill="#89C5CC"/>
<path fill-rule="evenodd" clip-rule="evenodd" d="M339.583 177.579C351.091 179.578 347.511 197.124 336.621 193.06C332.827 191.644 327.236 187.552 329.334 182.731C330.9 179.129 336.006 177.236 339.583 177.579M334.818 172.124C327.334 173.383 322.217 181.483 324.783 188.547C327.259 195.363 336.648 200.354 343.573 197.905C350.183 195.566 353.481 186.771 351.252 180.337C348.924 173.614 341.338 171.026 334.818 172.124" fill="#89C5CC"/>
<path fill-rule="evenodd" clip-rule="evenodd" d="M404.816 179.632C401.951 179.87 399.475 181.876 396.592 182.231C393.896 182.563 391.662 181.641 389.138 180.903C386.087 180.013 383.289 179.621 380.171 180.412C377.789 181.017 375.439 182.639 372.964 182.834C368.094 183.219 362.434 177.663 358.632 183.947C356.809 186.96 359.456 188.9 362.182 187.495C365.024 186.031 363.629 185.506 367.155 186.372C370.096 187.093 372.474 187.484 375.42 186.474C378.089 185.558 380.432 183.883 383.333 183.695C386.174 183.51 388.645 184.804 391.36 185.363C394.699 186.049 397.653 185.529 400.817 184.483C403.826 183.487 405.027 182.943 408.064 183.831C409.986 184.393 414.187 186.18 416.058 184.74C419.294 182.251 414.962 181.887 413.256 181.533C410.509 180.964 407.667 179.399 404.816 179.632" fill="#89C5CC"/>
<path fill-rule="evenodd" clip-rule="evenodd" d="M470.384 177.96C470.407 177.977 470.43 177.995 470.452 178.013C470.43 177.995 470.406 177.977 470.384 177.96M467.571 177.371C471.754 177.641 476.277 185.26 470.735 185.531C466.834 185.721 462.469 179.049 467.571 177.371M466.984 171.136C453.758 174.83 459.804 193.477 472.562 191.323C478.357 190.345 480.321 183.631 478.405 178.661C477.582 176.527 475.978 174.727 474.061 173.499C472.647 172.593 468.601 170.686 466.984 171.136" fill="#89C5CC"/>
<path fill-rule="evenodd" clip-rule="evenodd" d="M405.276 210.065C416.915 209.666 428.555 209.266 440.206 209.158C446.52 209.1 452.8 209.21 459.105 209.572C461.901 209.732 464.696 209.887 467.494 210.006C467.977 210.026 468.644 209.993 469.38 209.957C471.112 209.872 473.227 209.768 474.222 210.294C479.788 213.239 468.448 213.561 467.07 213.538C463.983 213.486 460.899 213.334 457.815 213.181C455.12 213.048 452.425 212.915 449.727 212.849C432.42 212.423 415.007 213.201 397.671 213.975C393.697 214.153 389.727 214.33 385.763 214.492C381.554 214.665 377.347 214.777 373.139 214.889C367.125 215.048 361.111 215.208 355.097 215.546C352.8 215.675 350.504 215.812 348.208 215.948C344.919 216.144 341.63 216.34 338.339 216.513C335.763 216.649 333.186 216.781 330.606 216.846C330.142 216.858 329.537 216.922 328.876 216.993L328.876 216.993H328.876C327.277 217.163 325.353 217.369 324.313 216.944C323.063 216.432 322.051 215.717 322.739 214.202C323.32 212.921 325.433 213.074 326.974 213.186C327.395 213.217 327.773 213.244 328.065 213.239C332.989 213.143 337.902 212.867 342.817 212.566C344.615 212.456 346.412 212.343 348.209 212.23L348.21 212.23L348.21 212.23L348.21 212.23L348.21 212.23C357.567 211.641 366.915 211.053 376.295 210.893C385.959 210.728 395.617 210.397 405.276 210.065ZM466.065 286.669L469.411 286.628C471.139 286.779 471.912 288.592 470.802 289.986C469.953 291.054 466.684 291.102 464.553 291.134C463.962 291.142 463.459 291.15 463.119 291.177C457.556 291.624 452.004 291.826 446.424 291.879C434.674 291.991 422.968 292.494 411.237 293.163C399.229 293.848 387.211 294.105 375.192 294.363H375.191C366.349 294.552 357.506 294.742 348.667 295.101C343.605 295.307 338.542 295.461 333.478 295.594C332.934 295.608 332.21 295.686 331.391 295.775C328.192 296.12 323.544 296.622 322.491 294.082C321.556 291.827 322.855 290.789 324.755 290.317C324.455 288.982 324.511 287.106 324.542 286.031C324.552 285.708 324.559 285.457 324.554 285.316C324.507 283.968 324.473 282.62 324.44 281.272C324.402 279.745 324.365 278.218 324.306 276.692C324.252 275.306 324.203 273.919 324.153 272.532C323.957 267.059 323.761 261.574 323.339 256.123C323.145 253.607 322.837 251.121 322.529 248.639C322.038 244.676 321.547 240.724 321.525 236.678C321.521 235.95 321.484 235.04 321.443 234.014C321.233 228.761 320.901 220.457 324.161 217.928C329.91 214.574 328.773 224.257 328.266 228.578C328.183 229.291 328.116 229.859 328.1 230.197C327.77 237.383 328.218 244.252 328.941 251.392C329.43 256.214 329.144 261.02 328.859 265.834C328.757 267.553 328.655 269.274 328.588 270.996C328.555 271.848 328.525 272.7 328.496 273.552C328.405 276.173 328.315 278.791 328.118 281.409C328.096 281.692 328.089 282.235 328.08 282.929C328.054 284.887 328.013 288.044 327.594 289.961C328.486 289.923 329.351 289.932 330.067 289.94C330.522 289.945 330.917 289.949 331.219 289.94C332.591 289.899 333.964 289.858 335.336 289.818C339.39 289.699 343.444 289.581 347.497 289.428C357.065 289.068 366.636 288.948 376.207 288.828C387.511 288.686 398.816 288.544 410.115 288.007C428.737 287.122 447.423 286.895 466.065 286.669ZM469.519 216.42C469.509 228.729 470.461 240.701 471.573 252.96C472.261 260.543 472.812 268.155 473.251 275.758C473.271 276.11 473.268 276.697 473.264 277.432V277.433C473.242 281.637 473.194 290.695 477.349 288.528C480.486 286.892 479.28 277.405 478.613 272.156L478.613 272.155C478.467 271.004 478.346 270.056 478.303 269.44C478.212 268.127 478.122 266.815 478.032 265.502C477.614 259.408 477.197 253.318 476.647 247.231L476.531 245.948C475.895 238.917 475.259 231.891 475.146 224.828C475.137 224.244 475.193 223.43 475.256 222.511C475.44 219.852 475.685 216.311 474.58 214.898C473.026 212.911 469.522 213.499 469.519 216.42Z" fill="#69A1AC"/>
<path fill-rule="evenodd" clip-rule="evenodd" d="M405.807 246.596C420.674 239.87 435.714 233.065 451.173 228.22C452.291 227.871 452.997 229.023 452.743 229.99C452.482 230.986 450.064 231.836 448.46 232.4C447.98 232.568 447.573 232.711 447.319 232.825C445.159 233.789 442.994 234.742 440.829 235.694C438.612 236.67 436.395 237.645 434.184 238.633C429.586 240.688 424.984 242.733 420.382 244.778C415.454 246.968 410.525 249.159 405.602 251.36C405.416 251.444 405.229 251.527 405.043 251.611C411.736 253.99 418.393 256.475 425.019 259.035C427.284 259.91 429.541 260.803 431.798 261.696C433.075 262.201 434.352 262.707 435.63 263.209C436.047 263.372 436.771 263.593 437.642 263.859C440.48 264.726 444.871 266.066 445.195 267.42C445.723 269.626 439.662 267.493 437.375 266.687C437.072 266.581 436.835 266.497 436.689 266.45C433.314 265.372 429.98 264.17 426.647 262.969L426.186 262.803C423.545 261.851 420.908 260.89 418.27 259.928C413.119 258.049 407.967 256.171 402.788 254.369C402.056 254.114 401.323 253.86 400.59 253.607C392.277 257.34 383.982 261.11 375.713 264.939C371.28 266.992 366.87 269.093 362.473 271.223C361.513 271.687 360.324 272.406 359.033 273.186C355.938 275.057 352.254 277.283 349.72 277.228C348.362 277.198 347.446 276.906 347.304 275.259C347.158 273.56 349.338 272.668 350.906 272.027C351.282 271.874 351.622 271.735 351.887 271.602C356.587 269.252 361.316 266.961 366.059 264.698C375.479 260.205 384.986 255.892 394.528 251.664C394.583 251.64 394.638 251.615 394.693 251.591C389.401 249.8 384.094 248.052 378.776 246.34C378.245 246.17 377.156 245.868 375.725 245.472C368.965 243.599 354.562 239.61 355.204 237.28C355.939 234.615 369.441 239.487 375.419 241.643C376.539 242.047 377.395 242.356 377.854 242.502C385.001 244.78 392.128 247.122 399.218 249.57C401.411 248.585 403.607 247.591 405.807 246.596Z" fill="#89C5CC"/>
<path fill-rule="evenodd" clip-rule="evenodd" d="M342.108 305.133C346.46 305.896 349.529 310.07 349.052 314.442C348.407 320.349 342.519 323.056 337.081 322.286C330.91 321.411 329.612 316.194 332.601 311.175C333.263 310.064 334.025 308.735 335.228 308.15C336.055 307.748 337.109 308.103 337.775 307.779C340.111 306.643 338.707 304.831 342.108 305.133M340.127 301.275C334.816 301.953 325.005 308.098 325.502 314.246C325.933 314.958 326.581 315.25 327.446 315.121C327.237 316.452 327.305 317.77 327.649 319.073C328.154 320.765 329.16 322.152 330.508 323.254C333.285 325.524 337.081 326.081 340.539 325.683C346.996 324.94 352.085 320.528 352.447 313.812C352.801 307.257 347.079 300.396 340.127 301.275" fill="#89C5CC"/>
<path fill-rule="evenodd" clip-rule="evenodd" d="M365.845 309.275C363.463 310.538 359.694 312.477 358.297 314.876C356.82 317.409 358.349 320.18 361.459 318.982C363.928 318.03 365.498 315.008 368.131 314.039C370.456 313.185 371.392 313.62 373.848 314.471C376.379 315.348 378.592 316.196 381.328 315.981C384.767 315.711 387.745 313.717 391.111 313.263C393.945 312.881 396.282 313.984 398.996 314.422C402.145 314.931 404.203 313.739 407.15 313.119C409.154 312.696 412.686 314.414 414.147 313.772C417.434 312.327 413.957 310.56 412.138 309.976C409.073 308.993 407.187 309.861 404.272 310.676C401.107 311.561 399.739 310.896 396.714 310.083C390.593 308.438 385.864 312.415 380.062 311.692C374.69 311.022 371.476 306.294 365.845 309.275" fill="#89C5CC"/>
<path fill-rule="evenodd" clip-rule="evenodd" d="M465.936 306.336C471.827 311.86 465.209 319.719 458.712 315.304C456.426 313.75 456.389 311.255 458.169 309.022C459.796 306.98 463.372 306.183 465.936 306.336V306.336ZM463.752 301.872C458.247 302.943 453.055 305.469 452.557 311.822C452.07 318.02 458.428 320.899 463.769 320.492C475.761 319.579 474.894 299.718 463.752 301.872V301.872Z" fill="#89C5CC"/>
</g>
<path opacity="0.5" fill-rule="evenodd" clip-rule="evenodd" d="M594.139 96.0057C589.736 96.0908 578.863 97.6923 577.247 102.901C576.02 106.854 579.665 105.986 581.618 104.548C584.261 102.602 586.578 101.438 589.853 100.846C602.326 98.5899 614.311 106.681 626.665 107.704C631.345 108.092 636.992 108.344 641.46 106.829C644.642 105.749 645.057 103.396 641.426 103.038C638.341 102.733 634.927 103.693 631.764 103.666C618.675 103.554 607.04 95.7596 594.139 96.0057" fill="#C1DEE2"/>
<g opacity="0.5">
<path fill-rule="evenodd" clip-rule="evenodd" d="M131.509 343.362C123.085 343.457 114.665 343.767 106.257 344.299C98.262 344.806 89.587 344.421 81.7219 345.971C79.4885 346.411 76.4717 348.447 79.4412 350.685C81.5285 352.259 89.1651 350.449 91.6575 350.296C100.837 349.732 110.02 349.056 119.212 348.731C127.914 348.423 136.616 348.315 145.322 348.228C146.651 348.215 148.857 347.789 150.181 348.175C152.083 348.73 151.632 348.88 151.774 351.294C152.032 355.669 151.961 360.058 151.874 364.437C151.79 368.673 151.634 372.91 151.649 377.148C151.66 380.172 150.693 386.182 152.211 388.808C154.395 392.588 156.66 388.482 156.824 385.97C157.136 381.166 156.996 376.302 156.998 371.491C156.998 366.976 157.031 362.46 156.872 357.947C156.756 354.687 157.222 348.996 155.466 346.032C153.677 343.013 149.371 343.664 146.228 343.521C141.326 343.295 136.415 343.311 131.509 343.362" fill="#89C5CC"/>
<path fill-rule="evenodd" clip-rule="evenodd" d="M77.9094 348.81C77.9186 357.294 76.9371 365.722 76.6622 374.196C76.5361 378.093 76.2802 382.371 77.2659 386.196C78.2608 390.058 81.4209 390.895 81.7849 386.583C82.5221 377.853 82.3413 368.8 82.9152 359.999C83.1178 356.892 84.4364 351.198 83.2055 348.288C82.1215 345.725 77.9047 345.234 77.9094 348.81" fill="#89C5CC"/>
<path fill-rule="evenodd" clip-rule="evenodd" d="M156.906 386.208C142.276 388.145 126.981 387.439 112.247 387.743C105.178 387.889 98.1105 387.898 91.0405 387.972C88.5731 387.998 82.3071 387.059 80.1725 388.446C76.7745 390.654 80.4613 392.358 82.7109 392.407C96.663 392.713 110.77 392.071 124.72 391.613C130.987 391.408 137.275 391.307 143.526 390.774C147.374 390.446 151.579 390.129 155.316 389.095C156.112 388.874 157.846 388.92 158.024 387.834C158.134 387.162 157.935 386.066 156.906 386.208" fill="#89C5CC"/>
<path fill-rule="evenodd" clip-rule="evenodd" d="M96.0698 398.54C92.0037 398.564 79.7508 396.676 78.0668 400.64C75.8219 405.928 84.5795 404.694 86.9348 404.634C92.2842 404.496 97.6299 404.481 102.981 404.484C108.231 404.486 113.481 404.452 118.73 404.327C120.251 404.291 123.79 404.922 124.665 403.091C125.33 401.699 124.805 400.601 123.579 399.864C120.628 398.091 112.963 399.119 109.508 398.96C105.036 398.754 100.548 398.54 96.0698 398.54" fill="#89C5CC"/>
<path fill-rule="evenodd" clip-rule="evenodd" d="M145.537 399.519C143.213 399.658 138.512 398.7 136.431 399.763C134.065 400.972 134.898 402.865 136.941 403.696C138.356 404.272 144.159 403.97 145.537 403.303C146.973 402.607 148.597 399.331 145.537 399.519" fill="#89C5CC"/>
<path fill-rule="evenodd" clip-rule="evenodd" d="M171.012 349.643C168.531 350.324 169.283 364.414 169.219 366.648C169.044 372.767 168.356 380.464 170.39 386.358C171.686 390.115 174.177 389.606 173.753 385.65C173.38 382.178 172.741 378.747 172.464 375.252C171.838 367.345 170.986 358.911 171.578 350.997C171.829 351.457 174.184 355.722 174.738 355.404C174.57 355.503 172.022 349.377 171.012 349.643" fill="#89C5CC"/>
<path fill-rule="evenodd" clip-rule="evenodd" d="M198.93 344.454C193.907 344.528 188.885 344.617 183.864 344.756C179.871 344.867 173.598 344.211 169.937 345.891C165.577 347.89 167.645 352.345 171.74 352.44C175.363 352.523 179.226 351.706 182.881 351.581C192.754 351.243 202.645 351.171 212.522 351.086C221.456 351.009 230.769 351.962 239.624 350.621C240.937 362.283 237.385 373.995 238.593 385.792C238.78 387.623 238.696 390.21 241.028 390.627C243.971 391.154 244.092 388.239 244.203 386.152C244.522 380.193 244.349 374.229 244.786 368.262C245.19 362.732 245.986 357.081 245.313 351.542C244.486 344.727 241.22 345.273 235.447 344.99C223.254 344.392 211.137 344.275 198.93 344.454" fill="#89C5CC"/>
<path fill-rule="evenodd" clip-rule="evenodd" d="M182.097 385.866C179.538 385.931 175.287 385.142 173.647 387.596C171.941 390.149 173.966 392.376 176.446 392.901C179.383 393.521 183.212 392.671 186.26 392.661C189.434 392.652 192.609 392.687 195.783 392.7C209.391 392.753 223.058 392.959 236.656 392.396C238.555 392.318 243.945 392.955 245.26 391.133C246.426 389.518 245.61 388.068 244.074 387.245C241.554 385.895 236.377 386.408 233.574 386.301C230.112 386.17 226.646 386.126 223.182 386.073C209.511 385.862 195.767 385.528 182.097 385.866" fill="#89C5CC"/>
<path fill-rule="evenodd" clip-rule="evenodd" d="M193.609 397.671C188.516 397.758 183.083 397.534 178.041 398.306C173.607 398.986 173.062 403.271 177.834 403.772C182.219 404.234 187.536 403.372 191.943 403.089C193.508 402.989 195.329 403.131 196.079 401.401C196.862 399.593 195.365 397.86 193.609 397.671" fill="#89C5CC"/>
<path fill-rule="evenodd" clip-rule="evenodd" d="M232.108 398.12C229.39 398.188 221.451 397.02 220.105 400.124C217.863 405.293 228.611 403.329 230.673 403.253C233.272 403.157 243.4 404.675 243.402 400.538C243.404 396.481 234.597 398.059 232.108 398.12" fill="#89C5CC"/>
<path fill-rule="evenodd" clip-rule="evenodd" d="M77.4701 423.804C77.4766 433.206 76.8915 442.697 77.7492 452.076C78.1039 455.955 78.0431 463.385 80.2899 466.674C81.8848 469.008 84.0968 468.844 84.968 466.042C85.5503 464.168 84.6189 460.421 84.515 458.416C84.4149 456.492 84.298 454.569 84.209 452.645C83.9804 447.688 83.9985 442.738 84.0667 437.778C84.1251 433.524 85.1493 427.895 84.1835 423.804C83.2831 419.99 77.4701 419.099 77.4701 423.804" fill="#69A1AC"/>
<path fill-rule="evenodd" clip-rule="evenodd" d="M171.966 415.533C155.653 415.942 139.304 415.576 123.005 416.384C114.967 416.782 106.961 417.656 98.963 418.528C95.0337 418.957 91.1067 419.398 87.1844 419.882C86.0007 420.027 76.1652 420.409 79.8645 424.149C81.4798 425.782 86.6201 424.076 88.6541 423.835C92.5922 423.371 96.5382 422.965 100.482 422.548C107.986 421.754 115.5 421.002 123.036 420.585C140.786 419.602 158.608 419.897 176.375 419.241C181.181 419.064 185.973 418.937 190.781 419.126C192.043 419.176 201.32 419.647 197.292 416.221C195.388 414.6 188.207 415.437 185.826 415.388C181.207 415.292 176.584 415.417 171.966 415.533" fill="#69A1AC"/>
<path fill-rule="evenodd" clip-rule="evenodd" d="M194.205 431.373C194.124 427.029 194.044 422.685 193.846 418.344C193.638 413.773 199.864 413.081 201.711 416.781C203.04 419.445 202.807 423.977 202.606 427.862C202.525 429.427 202.45 430.888 202.485 432.078C202.564 434.806 202.765 437.628 202.968 440.486C203.48 447.68 204.008 455.111 202.664 461.902C202.01 465.202 199.226 466.936 197.373 465.138C197.371 465.141 197.368 465.145 197.366 465.149C196.669 466.176 194.499 466.174 192.902 466.172C192.462 466.172 192.065 466.171 191.754 466.192C187.377 466.49 183.081 466.992 178.743 467.642C170.099 468.938 161.53 469.734 152.793 469.95C146.864 470.097 140.927 470.146 134.988 470.196C123.617 470.29 112.239 470.384 100.904 471.162C97.0822 471.425 93.3184 471.875 89.5593 472.594C89.2393 472.655 88.884 472.734 88.5057 472.819C85.7106 473.44 81.6642 474.34 81.3877 470.434C81.0591 465.798 91.1072 465.19 96.278 464.878C97.0675 464.83 97.7433 464.789 98.2511 464.742C113.952 463.282 129.899 463.508 145.666 463.732C146.43 463.742 147.193 463.753 147.956 463.764C149.187 463.781 150.417 463.801 151.647 463.821C158.398 463.933 165.14 464.044 171.889 463.631C174.96 463.443 178.071 463.346 181.189 463.25C186.161 463.096 191.149 462.941 196.012 462.414C195.279 459.57 195.151 456.214 195.03 453.051C194.983 451.819 194.937 450.617 194.857 449.485C194.429 443.456 194.317 437.415 194.205 431.373Z" fill="#69A1AC"/>
<path fill-rule="evenodd" clip-rule="evenodd" d="M207.407 421.693C205.204 421.993 203.365 423.879 204.349 426.271C205.588 429.283 209.279 428.106 211.718 427.916C219.468 427.308 227.56 428.521 235.216 427.606C237.307 427.356 240.341 426.217 238.463 423.408C237.052 421.296 231.91 421.667 229.725 421.464C222.25 420.773 214.873 420.957 207.407 421.693" fill="#C1DEE2"/>
<path fill-rule="evenodd" clip-rule="evenodd" d="M220.488 434.835C217.482 435.037 210.486 434.878 209.219 438.298C206.947 444.433 215.846 442.271 218.556 441.922C221.703 441.517 229.123 442.602 230.799 439.55C233.796 434.091 223.124 434.653 220.488 434.835" fill="#C1DEE2"/>
<path fill-rule="evenodd" clip-rule="evenodd" d="M212.759 448.298C211.333 449.724 211.331 452.271 212.759 453.698C214.507 455.445 218.316 455.082 220.613 455.209C223.818 455.388 233.02 457.083 234.612 453.31C236.758 448.219 228.425 448.326 225.684 448.037C222.516 447.704 215.384 445.671 212.759 448.298" fill="#C1DEE2"/>
<path fill-rule="evenodd" clip-rule="evenodd" d="M100.437 361.159C100.437 366.632 108.985 366.632 108.985 361.159C108.985 355.715 100.437 355.632 100.437 361.159" fill="#89C5CC"/>
<path fill-rule="evenodd" clip-rule="evenodd" d="M116.651 361.221C116.651 367.478 126.388 367.465 126.388 361.221C126.388 354.986 116.651 354.922 116.651 361.221" fill="#89C5CC"/>
<path fill-rule="evenodd" clip-rule="evenodd" d="M106.842 369.54C102.109 370.847 106.469 374.858 108.667 375.774C112.16 377.231 116.926 378.304 120.42 376.121C121.81 375.252 122.938 374.097 121.92 372.411C120.834 370.616 119.348 371.414 117.696 371.579C115.603 371.79 113.911 371.758 111.889 371.086C110.381 370.585 108.488 369.087 106.842 369.54" fill="#89C5CC"/>
<path fill-rule="evenodd" clip-rule="evenodd" d="M192.689 361.505C192.689 365.207 198.438 365.207 198.438 361.505C198.438 357.803 192.689 357.803 192.689 361.505" fill="#89C5CC"/>
<path fill-rule="evenodd" clip-rule="evenodd" d="M205.402 362.062C205.402 366.175 211.788 366.176 211.788 362.062C211.788 357.949 205.402 357.949 205.402 362.062" fill="#89C5CC"/>
<path fill-rule="evenodd" clip-rule="evenodd" d="M204.929 370.989C201.575 371.421 191.873 372.405 191.33 376.539C190.493 382.918 201.123 377.756 203.549 377.255C206.639 376.617 209.399 376.783 212.484 376.907C214.177 376.975 216.43 377.25 216.253 374.669C215.962 370.433 207.861 370.613 204.929 370.989" fill="#89C5CC"/>
<path fill-rule="evenodd" clip-rule="evenodd" d="M120.591 429.815C118.16 430.463 114.979 434.667 116.652 437.239C119.395 441.458 120.605 434.98 121.752 434.357C123.841 433.222 125.537 437.368 127.719 435.193C131.164 431.762 122.759 429.234 120.591 429.815" fill="#69A1AC"/>
<path fill-rule="evenodd" clip-rule="evenodd" d="M148.45 426.696C145.566 426.722 139.479 430.805 139.048 433.819C138.792 435.61 139.98 437.33 141.91 437.354C144.539 437.386 145.375 433.968 147.653 433.254C150.111 432.483 149.747 434.258 151.87 435.178C153.423 435.852 155.366 435.57 155.906 433.66C156.924 430.057 151.412 426.639 148.45 426.696" fill="#69A1AC"/>
<path fill-rule="evenodd" clip-rule="evenodd" d="M126.379 443.954C121.768 446.656 129.356 452.449 131.987 453.174C135.958 454.267 143.951 452.226 144.892 447.375C145.267 445.444 144.059 443.695 141.928 444.041C140.174 444.326 139.049 446.527 137.424 447.315C135.23 448.378 133.28 448.306 131.416 446.705C129.898 445.4 129.085 442.376 126.379 443.954" fill="#69A1AC"/>
<path fill-rule="evenodd" clip-rule="evenodd" d="M129.722 483.886C125.602 484.764 121.413 484.175 117.273 485.001C113.051 485.844 110.528 487.439 106.606 485.832C106.421 485.754 106.237 485.676 106.053 485.598C103.017 484.291 99.8354 483.903 96.6576 485.988C94.7771 487.221 89.0684 491.486 89.7564 494.089C91.2475 499.732 97.6711 490.883 99.3091 490.021C102.433 488.377 104.574 490.478 107.79 491.07C111.642 491.781 114.741 489.745 118.37 488.935C122.613 487.986 127.387 487.656 131.705 487.149C133.41 486.948 139.871 488.297 140.454 486.174C141.456 482.528 131.342 483.542 129.722 483.886" fill="#C1DEE2"/>
<path fill-rule="evenodd" clip-rule="evenodd" d="M159.449 495.25C159.719 495.454 159.503 495.29 159.449 495.25ZM170.989 483.664C174.516 483.307 185.802 480.787 188.119 484.432C189.629 486.806 187.233 495.568 184.949 496.702C183.122 497.607 178.869 496.606 176.865 496.535C173.136 496.404 169.4 496.345 165.675 496.113C164.426 496.035 160.407 496.265 159.428 495.159C158.272 493.854 158.323 486.895 158.051 485.169C161.294 486.219 167.598 484.009 170.989 483.664M178.521 480.091C174.004 480.287 169.487 480.626 165.003 481.232C162.504 481.57 159.971 482.468 157.663 482.893C156.919 483.031 155.711 482.65 154.799 483.091C152.132 484.379 154.467 493.088 155.11 495.415C156.098 498.989 158.583 499.568 162.066 499.905C166.653 500.35 171.334 500.21 175.936 500.153C180.371 500.099 186.352 501.082 188.841 496.631C190.45 493.754 192.175 487.053 190.8 483.846C188.991 479.626 182.236 479.935 178.521 480.091" fill="#C1DEE2"/>
<path fill-rule="evenodd" clip-rule="evenodd" d="M229.11 497.644C228.869 497.954 228.869 497.954 229.11 497.644ZM230.1 496.451C230.026 496.564 229.679 496.93 230.1 496.451ZM219.327 496.123C221.318 495.748 223.31 495.377 225.304 495.014C223.416 497.656 221.428 496.564 218.203 496.334C218.578 496.263 218.952 496.193 219.327 496.123M209.826 495.188C210.331 495.019 210.835 494.85 211.34 494.681C211.325 495.065 211.407 495.425 211.588 495.76C210.724 495.667 209.86 495.567 208.998 495.46C209.274 495.369 209.55 495.279 209.826 495.188M205.423 491.937C205.395 491.243 206.438 491.719 207.035 491.673C205.883 492.687 205.346 492.775 205.423 491.937M221.169 484.072C221.32 483.879 221.521 483.889 221.771 484.101C221.498 484.193 220.448 484.638 221.169 484.072M231.38 482.871C231.407 482.871 231.973 483.636 231.38 482.871ZM231.093 482.621C231.242 482.734 231.242 482.734 231.093 482.621ZM229.819 482.472C231.907 482.824 231.748 485.274 229.819 482.472ZM205.29 482.305C204.866 482.657 205.011 482.315 205.29 482.305ZM213.275 477.088C209.73 477.295 203.224 477.087 200.264 478.975C196.401 481.441 198.433 489.926 198.779 493.646C199.29 499.145 201.877 500.71 207.055 501.287C213.235 501.976 219.585 502.105 225.796 501.941C231.391 501.794 234.577 499.87 235.601 493.98C235.915 492.178 236.712 489.39 236.687 487.664C236.67 486.466 236.073 485.92 235.847 484.902C234.562 479.105 232.414 478.418 226.472 478.165C222.099 477.979 217.565 476.864 213.275 477.088" fill="#89C5CC"/>
</g>
<g opacity="0.5">
<path fill-rule="evenodd" clip-rule="evenodd" d="M401.032 343.913C410.044 344.105 420.269 349.092 418.844 359.658C417.8 367.399 411.098 373.682 403.336 374.224C394.995 374.806 386.175 368.404 385.042 359.91C383.766 350.357 392.22 343.722 401.032 343.913M396.613 339.611C392.96 340.157 389.469 342.075 386.252 343.794C385.024 344.45 378.798 348.451 383.681 349.445C371.916 368.419 399.604 386.043 415.171 373.711C422.161 368.174 425.841 357.675 421.323 349.457C416.649 340.957 405.566 338.267 396.613 339.611" fill="#89C5CC"/>
<path fill-rule="evenodd" clip-rule="evenodd" d="M394.46 355.761C394.46 359.305 399.96 359.305 399.96 355.761C399.96 352.218 394.46 352.218 394.46 355.761" fill="#89C5CC"/>
<path fill-rule="evenodd" clip-rule="evenodd" d="M404.658 356.329C404.658 360.171 410.621 360.171 410.621 356.329C410.621 352.487 404.658 352.487 404.658 356.329" fill="#89C5CC"/>
<path fill-rule="evenodd" clip-rule="evenodd" d="M397.775 363.927C396.973 366.842 406.123 368.336 406.428 364.963C406.573 363.351 398.333 361.893 397.775 363.927" fill="#89C5CC"/>
<path fill-rule="evenodd" clip-rule="evenodd" d="M424.6 362.125C435.129 360.862 445.985 361.446 456.565 361.749C459.213 361.825 461.861 361.899 464.509 361.943C466.193 361.972 469.829 362.78 471.298 361.992C477.315 358.765 465.512 357.204 463.84 357.056C453.316 356.19 437.075 355.881 426.52 356.29C423.398 356.411 422.724 362.35 424.6 362.125" fill="#89C5CC"/>
<path fill-rule="evenodd" clip-rule="evenodd" d="M471.98 414.468C472.071 403.436 472.466 392.329 473.314 381.33C473.659 376.846 474.074 372.369 474.417 367.886C474.579 365.774 475.329 362.816 474.088 360.963C472.809 359.054 470.003 358.657 468.312 360.349C466.288 362.969 466.876 367.367 466.625 370.536C466.238 375.409 465.77 380.279 465.538 385.163C465.089 394.616 464.983 404.233 465.743 413.672C466.102 418.126 466.879 422.472 467.914 426.816C468.385 428.794 472.133 437.602 471.345 438.817C470.124 440.701 461.099 439.989 459.141 440.041C454.118 440.176 449.092 440.264 444.067 440.36C439.765 440.442 435.463 440.501 431.16 440.539C429.452 440.554 419.414 440.25 421.641 442.783C396.742 444.518 371.366 441.621 346.619 440.628C345.369 440.577 343.323 440.223 341.435 440.121C341.209 439.209 341.023 438.394 340.977 437.827C340.652 433.85 340.567 429.859 340.215 425.883C339.569 418.608 338.318 411.406 337.574 404.143C336.831 396.888 336.906 389.611 336.474 382.338C336.4 381.092 336.224 370.884 333.648 368.404C334.87 368.867 336.839 368.927 337.973 368.835C347.153 368.095 356.267 366.5 365.368 365.13C367.972 364.739 373.881 365.016 376.041 363.715C377.91 362.588 378.65 358.637 375.398 358.957C366.323 359.929 357.296 361.438 348.292 362.923C345.883 363.321 343.481 363.745 341.079 364.18C339.475 364.469 335.241 364.447 333.997 365.414C332.486 366.588 332.326 367.387 332.838 367.918C332.126 367.722 331.273 368.03 330.248 369.055C328.311 371.577 330.132 377.788 330.363 380.745C330.641 384.292 330.777 387.845 330.939 391.398C331.251 398.274 331.97 405.055 333.077 411.849C334.317 419.459 335.371 427.101 336.614 434.709C336.938 436.69 337.359 438.622 337.898 440.536C334.549 442.249 336.826 444.972 339.482 445.455C339.501 445.459 339.521 445.462 339.54 445.465C340.367 447.484 341.525 449.354 342.43 446.649C342.499 446.442 342.531 446.186 342.539 445.899C349.399 446.675 356.938 446.193 363.691 446.469C378.319 447.067 393.037 447.964 407.68 447.509C413.477 447.329 419.291 446.815 425.04 446.041C428.407 445.588 431.788 445.047 435.102 444.296C435.339 444.243 435.7 444.186 436.117 444.117C436.185 444.115 436.254 444.114 436.319 444.113C441.393 444.036 446.463 443.9 451.533 443.689C455.789 443.513 460.064 443.422 464.306 443.02C466.941 442.771 472.51 442.817 474.128 440.167C475.599 437.758 473.139 431.551 472.79 428.845C472.176 424.079 471.941 419.27 471.98 414.468" fill="#C1DEE2"/>
<path fill-rule="evenodd" clip-rule="evenodd" d="M420.556 382.613C416.502 382.96 412.752 384.864 408.66 384.888C405.226 384.908 401.844 383.881 398.391 384.033C394.34 384.21 392.111 386.829 388.562 387.706C385.737 388.403 383.957 386.241 381.473 385.284C378.335 384.076 376.018 384.7 373.329 386.527C371.353 387.87 366.745 390.883 366.78 393.598C366.886 401.824 376.483 390.461 378.418 390.323C380.988 390.14 383.86 393.071 386.595 393.237C390.211 393.459 392.53 391.128 395.86 390.278C399.227 389.419 402.867 390.472 406.242 390.798C410.094 391.171 413.464 390.312 417.19 389.393C420.801 388.502 423.879 388.549 427.548 389.297C430.024 389.802 436.193 392.738 437.276 388.963C438.752 383.822 423.391 382.372 420.556 382.613" fill="#89C5CC"/>
<path fill-rule="evenodd" clip-rule="evenodd" d="M421.791 398.302C413.482 399.108 405.124 399.815 396.778 400.042C393.163 400.14 379.267 398.591 380.499 403.184C381.555 407.123 400.466 404.643 404.317 404.343C408.569 404.013 412.815 403.551 417.046 403.015C418.546 402.826 422.167 403.022 423.225 401.764C424.234 400.565 423.736 398.107 421.791 398.302" fill="#89C5CC"/>
<path fill-rule="evenodd" clip-rule="evenodd" d="M364.476 419.22C364.286 419.3 364.286 419.3 364.476 419.22ZM366.228 419.197C368.299 419.131 367.855 418.039 369.922 418.608C370.875 418.871 370.972 418.481 371.711 419.392C373.153 421.169 371.795 425.039 370.374 426.47C365.113 431.773 358.799 419.432 366.228 419.197M366.228 413.995C351.825 414.479 357.851 436.728 370.387 432.186C375.564 430.31 378.818 421.86 375.773 417.111C374.292 414.801 372.403 414.391 369.922 414.23C369.345 414.193 368.621 415.031 368.261 414.993C367.406 414.902 367.486 413.948 366.228 413.995" fill="#89C5CC"/>
<path fill-rule="evenodd" clip-rule="evenodd" d="M400.671 419.983C400.414 419.903 405.219 421.3 404.693 420.753C405.815 421.92 404.307 424.679 403.038 425.16C399.965 426.327 398.24 421.548 400.671 419.983M402.803 413.95C398.293 414.589 394.813 416.467 394.196 421.482C393.628 426.111 396.755 430.798 401.689 430.889C412.442 431.085 412.769 412.559 402.803 413.95" fill="#89C5CC"/>
<path fill-rule="evenodd" clip-rule="evenodd" d="M451.893 420.186C452.523 428.406 443.999 420.882 451.893 420.186ZM448.235 411.392C447.49 412.666 448.125 414.018 449.25 414.759C439.196 416.884 441.473 432.013 451.704 429.778C456.907 428.641 457.864 423.17 457.088 418.653C456.719 416.505 451.366 406.038 448.235 411.392" fill="#89C5CC"/>
</g>
<path opacity="0.5" fill-rule="evenodd" clip-rule="evenodd" d="M472.021 419.286C469.024 419.819 461.939 423.129 462 426.684C462.096 432.234 468.118 426.172 469.458 425.357C476.653 420.978 485.973 426.652 493.466 427.86C496.901 428.413 503.621 429.436 506.655 427.134C512.051 423.04 499.572 424.065 497.982 423.9C489.344 423.008 480.75 417.727 472.021 419.286" fill="#C1DEE2"/>
<g opacity="0.5">
<path fill-rule="evenodd" clip-rule="evenodd" d="M613.586 380.267C613.583 385.946 613.296 391.741 614.343 397.352C614.659 399.05 614.909 402.303 616.701 403.185C618.501 404.07 620.246 403.075 620.693 401.23C621.215 399.084 620.07 395.871 619.955 393.618C619.795 390.539 619.785 387.457 619.783 384.375C619.782 382.149 620.515 378.568 617.887 377.423C615.933 376.572 613.586 378.155 613.586 380.267" fill="#C1DEE2"/>
<path fill-rule="evenodd" clip-rule="evenodd" d="M703.353 371.287C684.541 373.175 665.457 373.568 646.576 374.552C637.849 375.007 627.301 374.427 619.079 377.805C617.552 378.433 612.084 381.924 616.523 383.346C617.907 383.79 619.313 382.299 620.449 381.799C622.341 380.968 624.532 380.711 626.55 380.387C643.706 377.632 661.651 378.111 678.984 376.824C683.425 376.494 687.869 376.154 692.301 375.718C695.467 375.407 702.122 373.125 705.044 374.292C710.038 376.287 709.921 389.246 710.019 393.703C710.071 396.009 707.833 404.283 712.281 403.444C715.84 402.773 714.552 394.177 714.274 391.825C713.546 385.662 712.305 370.38 703.353 371.287" fill="#C1DEE2"/>
<path fill-rule="evenodd" clip-rule="evenodd" d="M710.291 403.145C693.95 404.62 677.233 403.173 660.824 403.753C652.224 404.058 643.632 404.542 635.03 404.826C631.31 404.949 627.586 404.955 623.864 404.981C622.084 404.993 613.983 406.072 618.994 409.602C621.213 411.164 628.285 409.906 630.831 409.875C634.656 409.83 638.478 409.671 642.3 409.521C651.152 409.175 659.999 408.696 668.856 408.456C677.328 408.227 685.805 408.178 694.277 407.948C698.492 407.834 702.765 407.704 706.943 407.089C707.886 406.95 710.948 406.84 711.603 405.788C712.222 404.794 711.787 403.001 710.291 403.145" fill="#89C5CC"/>
<path fill-rule="evenodd" clip-rule="evenodd" d="M629.978 390.876C629.89 391.084 629.89 391.084 629.978 390.876ZM637.055 388.725C637.313 388.835 637.313 388.835 637.055 388.725ZM636.723 388.666C640.537 392.553 634.672 397.193 631.1 393.399C627.308 389.373 634.268 388.679 636.723 388.666M632.679 382.785C619.543 385.122 624.194 402.629 636.462 400.099C641.848 398.988 644.928 393.562 643.075 388.35C642.35 386.314 640.772 384.079 638.573 383.437C637.477 383.117 636.507 383.62 635.463 383.503C634.467 383.391 633.915 382.562 632.679 382.785" fill="#C1DEE2"/>
<path fill-rule="evenodd" clip-rule="evenodd" d="M682.95 387.712C675.029 387.737 667.106 388.074 659.187 388.224C656.757 388.27 650.514 387.183 650.504 391.012C650.493 395.104 657.448 393.593 659.763 393.538C667.618 393.35 675.494 393.006 683.319 392.258C685.295 392.069 692.137 392.395 692.13 389.707C692.123 386.86 684.546 387.712 682.95 387.712" fill="#C1DEE2"/>
<path fill-rule="evenodd" clip-rule="evenodd" d="M701.868 414.421C682.278 414.946 662.717 415.129 643.143 416.132C635.821 416.507 628.509 416.786 621.177 416.786C619.765 416.786 616.921 416.239 615.592 417.128C611.985 419.541 616.093 421.611 618.443 421.741C634.524 422.634 650.837 420.413 666.908 419.911C676.317 419.618 685.728 419.531 695.131 419.053C697.696 418.922 700.261 418.77 702.823 418.572C704.295 418.458 708.19 418.77 709.381 417.909C714.578 414.147 703.621 414.373 701.868 414.421" fill="#89C5CC"/>
<path fill-rule="evenodd" clip-rule="evenodd" d="M611.986 424C611.801 429.079 611.782 434.07 612.447 439.121C612.708 441.108 612.828 443.364 615.158 443.869C617.274 444.327 618.347 442.727 618.785 440.953C619.855 436.62 618.914 430.384 618.901 425.883C618.895 423.657 618.893 421.166 616.143 420.663C614.045 420.279 612.066 421.795 611.986 424" fill="#89C5CC"/>
<path fill-rule="evenodd" clip-rule="evenodd" d="M722.633 436.245C690.922 437.916 659.252 439.375 627.517 440.716C625.042 440.821 605.816 440.611 612.538 447.316C614.614 449.387 619.963 447.984 622.647 447.853C626.682 447.654 630.719 447.503 634.753 447.298C650.75 446.483 666.788 446.264 682.773 445.35C691.57 444.847 700.346 444.06 709.097 443.036C713.259 442.549 718.426 442.599 722.324 440.968C724.329 440.129 726.494 436.04 722.633 436.245" fill="#89C5CC"/>
<path fill-rule="evenodd" clip-rule="evenodd" d="M704.399 410.48C701.988 412.881 703.228 417.62 703.41 420.588C703.66 424.674 703.963 428.762 704.473 432.824C704.805 435.464 704.63 439.571 706.038 441.851C707.686 444.521 711.317 444.225 712.807 441.646C714.126 439.365 713.459 434.565 713.424 432.038C713.377 428.542 713.16 425.041 712.952 421.552C712.779 418.637 713.439 413.964 711.835 411.468C710.206 408.933 706.659 408.232 704.399 410.48" fill="#89C5CC"/>
<path fill-rule="evenodd" clip-rule="evenodd" d="M631.917 429.118C631.634 429.336 631.634 429.336 631.917 429.118ZM637.549 428.412C642.805 429.47 634.307 435.606 631.621 431.394C631.202 430.736 630.983 429.927 631.657 429.356C632.271 428.833 632.657 429.758 633.238 429.509C634.238 429.081 636.482 428.373 637.549 428.412M636.824 423.375C633.236 423.659 628.303 423.88 626.527 427.477C624.141 432.308 628.221 437.04 632.942 437.775C637.485 438.482 644.267 435.966 644.631 430.668C644.924 426.396 640.861 423.047 636.824 423.375" fill="#89C5CC"/>
<path fill-rule="evenodd" clip-rule="evenodd" d="M666.781 425.93C663.066 425.99 655.765 424.892 652.529 426.702C649.327 428.494 650.755 431.684 653.676 432.447C655.607 432.951 658.763 432.138 660.773 432.056C663.418 431.948 666.064 431.925 668.71 431.888C673.161 431.828 677.609 431.879 682.06 431.879C686.605 431.879 691.228 432.003 695.766 431.669C701.508 431.246 701.353 426.947 695.738 426.41C686.199 425.497 676.35 425.78 666.781 425.93" fill="#89C5CC"/>
<path fill-rule="evenodd" clip-rule="evenodd" d="M657.292 474.08C657.292 476.122 659.104 474.08 659.091 474.08C659.104 474.08 657.292 472.037 657.292 474.08" fill="#89C5CC"/>
<path fill-rule="evenodd" clip-rule="evenodd" d="M616.297 457.637C616.414 463.574 616.491 469.517 616.744 475.449C616.825 477.325 616.288 480.989 618.561 481.945C621.092 483.01 621.879 480.356 622.171 478.558C623.094 472.862 622.189 466.358 622.1 460.594C622.07 458.659 622.489 455.964 620.291 454.999C618.498 454.212 616.261 455.674 616.297 457.637" fill="#89C5CC"/>
<path fill-rule="evenodd" clip-rule="evenodd" d="M713.936 457.729C714.086 458.083 714.086 458.083 713.936 457.729ZM714.147 457.669C714.269 457.72 714.761 457.926 714.147 457.669ZM666.184 452.87C657.069 453.013 647.948 453.121 638.839 453.511C634.952 453.678 631.02 453.813 627.145 454.179C624.401 454.439 617.585 454.547 615.805 456.789C612.132 461.418 619.921 460.155 621.598 459.78C624.651 459.095 627.767 458.876 630.886 458.711C637.653 458.355 644.424 458.164 651.199 458.027C669.574 457.658 687.962 457.714 706.34 457.631C708.119 457.623 711.335 456.907 712.979 457.627C714.625 458.349 714.532 460.122 714.703 462.181C714.931 464.921 713.123 470.142 714.5 472.447C716.636 476.022 719.742 472.986 720.217 470.38C720.873 466.779 719.833 462.455 718.815 459.013C717.379 454.156 715.386 453.963 710.688 453.583C705.2 453.14 699.731 452.871 694.224 452.82C684.88 452.734 675.528 452.725 666.184 452.87" fill="#89C5CC"/>
<path fill-rule="evenodd" clip-rule="evenodd" d="M702.233 477.413C682.464 479.709 662.132 478.356 642.257 478.437C637.424 478.457 632.586 478.496 627.758 478.73C625.208 478.854 619.162 478.151 617.415 480.118C613.732 484.265 620.366 484.869 622.788 484.697C627.685 484.349 632.594 484.19 637.503 484.152C654.796 484.018 672.186 484.825 689.465 483.972C696.704 483.615 703.781 482.376 710.886 480.993C712.46 480.686 723.235 478.638 717.091 476.182C713.459 474.732 706.048 476.968 702.233 477.413" fill="#89C5CC"/>
<path fill-rule="evenodd" clip-rule="evenodd" d="M644.512 469.822C644.374 469.999 644.374 469.999 644.512 469.822ZM644.379 469.791C644.332 469.918 644.187 470.232 644.379 469.791ZM643.132 468.183C643.161 468.22 643.278 468.371 643.132 468.183ZM643.084 468.171C643.56 468.739 643.881 469.373 644.045 470.072C639.949 471.182 638.371 467.868 643.084 468.171M642.825 468.016C642.826 468.017 643.402 468.259 642.825 468.016ZM636.096 463.079C633.445 466.38 631.257 470.227 634.562 473.998C637.517 477.37 643.463 477.805 647.213 475.554C651.077 473.235 650.743 468.352 648.048 465.165C646.313 463.113 644.906 463.17 642.388 462.835C640.674 462.607 637.551 461.274 636.096 463.079" fill="#89C5CC"/>
<path fill-rule="evenodd" clip-rule="evenodd" d="M663.5 469.188C663.5 473.584 682.481 471.692 685.858 471.687C688.687 471.683 705.79 473.243 704.563 468.72C703.554 465.003 686.707 466.85 683.119 466.845C680.017 466.84 663.5 464.711 663.5 469.188" fill="#89C5CC"/>
</g>
<g opacity="0.5">
<path fill-rule="evenodd" clip-rule="evenodd" d="M415.7 510.375C425.206 511.756 435.094 516.226 435.011 527.291C434.941 536.594 427.139 546.496 417.119 545.94C408.103 545.44 399.612 535.58 398.483 527.13C397.898 522.752 398.993 518.038 401.568 514.437C404.942 509.718 410.296 509.726 415.7 510.375M411.21 504.361C404.334 504.399 399.304 506.886 395.049 512.135C393.523 514.018 391.748 516.044 390.586 518.177C389.501 520.168 389.691 525.233 393.415 522.859C392.498 532.664 398.229 542.182 406.467 547.206C415.422 552.668 425.544 551.603 432.997 543.948C439.819 536.94 442.22 525.103 437.229 516.436C432.241 507.773 420.683 504.268 411.21 504.361" fill="#89C5CC"/>
<path fill-rule="evenodd" clip-rule="evenodd" d="M431.826 501.733C427.424 504.959 423.405 509.208 420.067 513.516C416.804 517.728 414.647 522.987 410.727 526.659C408.748 524.503 406.429 518.68 402.48 520.991C399.203 522.908 401.313 526.204 402.909 528.369C407.03 533.958 411.606 536.208 416.891 530.685C421.691 525.67 424.417 518.98 428.905 513.676C430.873 511.349 433.915 509.039 435.482 506.47C436.903 504.141 435.146 499.293 431.826 501.733" fill="#89C5CC"/>
</g>
<g opacity="0.5">
<path fill-rule="evenodd" clip-rule="evenodd" d="M598.175 151.877C598.182 152.317 598.188 152.731 598.197 153.111C598.403 161.416 598.284 170.146 597.609 178.431C597.376 181.291 595.295 184.917 592.921 180.974C591.877 179.24 592.024 175.68 592.131 173.06C592.16 172.358 592.186 171.724 592.186 171.21C592.184 168.288 592.337 165.335 592.491 162.375C592.792 156.588 593.095 150.77 592.238 145.086C592.221 144.971 592.204 144.86 592.189 144.754C591.816 142.254 591.791 142.082 589.042 142.139C587.896 142.162 586.75 142.193 585.605 142.224C584.478 142.255 583.351 142.285 582.224 142.309C581.104 142.332 579.985 142.354 578.866 142.375C575.356 142.443 571.846 142.51 568.337 142.639C567.752 142.661 566.659 142.798 565.281 142.97C562.524 143.316 558.624 143.805 555.342 143.803C555.343 143.817 555.344 143.831 555.345 143.845C555.347 143.87 555.349 143.896 555.349 143.922C555.386 145.734 554.919 147.756 554.45 149.788C554.058 151.49 553.664 153.198 553.563 154.795C553.322 158.594 553.319 162.433 553.317 166.273C553.313 170.947 553.31 175.622 552.877 180.225C552.856 180.449 552.843 180.687 552.83 180.927C552.829 180.958 552.827 180.99 552.825 181.022C552.974 181 553.118 180.984 553.257 180.975C555.623 180.825 558.008 180.812 560.39 180.798C561.704 180.791 563.016 180.784 564.323 180.753C566.671 180.699 569.048 180.701 571.434 180.704C576.701 180.71 582.015 180.715 587.167 180.108C588.689 179.911 589.221 181.863 588.538 182.875C587.927 183.781 586.244 183.927 585.012 184.035C584.699 184.062 584.415 184.087 584.185 184.121C580.862 184.613 577.495 184.785 574.142 184.933C570.621 185.089 567.096 185.206 563.573 185.304C562.734 185.327 561.615 185.44 560.374 185.566C557.097 185.897 552.972 186.314 550.925 185.387C548.724 184.392 548.776 183.287 549.674 182.43C549.28 181.564 549.218 180.299 549.169 179.309C549.151 178.931 549.134 178.593 549.102 178.333C548.614 174.392 548.319 170.501 548.312 166.526C548.298 158.739 548.314 150.653 550.468 143.116C549.605 142.738 549.085 142.181 549.087 141.379C549.097 137.335 561.682 137.541 567.665 137.638C568.735 137.656 569.593 137.67 570.131 137.656C574.489 137.542 578.848 137.527 583.207 137.551C584.128 137.555 585.153 137.495 586.215 137.433C588.474 137.3 590.901 137.157 592.852 137.611C597.978 138.801 598.101 146.964 598.175 151.877Z" fill="#89C5CC"/>
<path fill-rule="evenodd" clip-rule="evenodd" d="M630.235 138.498C634.994 138.246 639.756 138.188 644.521 138.17C649.566 138.145 654.619 138.236 659.662 138.391L659.778 138.394C662.013 138.461 674.433 138.834 668.727 141.929C668.394 142.11 668.019 142.261 667.61 142.386C667.852 143.819 667.881 145.299 667.842 146.011C667.695 148.715 667.598 151.421 667.501 154.127C667.435 155.961 667.369 157.795 667.288 159.628C667.063 164.693 666.849 169.757 666.675 174.824C666.653 175.446 666.686 176.259 666.723 177.166C666.844 180.163 667.007 184.18 665.379 185.665C663.951 186.968 662.974 186.707 662.317 185.822C658.228 187.009 649.833 186.623 645.611 186.429C644.594 186.382 643.819 186.346 643.405 186.347C642.665 186.347 641.29 186.439 639.553 186.556C632.324 187.041 618.83 187.948 618.802 184.384C618.799 184.041 618.911 183.734 619.12 183.459C618.548 182.874 618.032 182.016 617.701 180.945C616.513 177.102 616.401 172.954 616.313 168.968C616.189 163.34 616.187 157.705 616.186 152.072C616.185 149.179 616.185 146.286 616.167 143.394C615.395 142.356 615.853 141.169 616.818 140.341C618.87 138.579 623.966 138.558 627.652 138.542C628.644 138.538 629.534 138.535 630.235 138.498ZM622.491 181.895C627.078 180.916 634.807 181.231 638.948 181.4C640.032 181.444 640.871 181.478 641.342 181.477C645.571 181.46 649.802 181.519 654.028 181.688C654.465 181.705 655.114 181.689 655.878 181.67C657.412 181.631 659.412 181.581 661.111 181.769C661.088 181.539 661.073 181.328 661.064 181.146C660.873 177.385 661.011 173.591 661.148 169.818V169.818C661.177 169.016 661.206 168.215 661.232 167.415C661.322 164.594 661.443 161.775 661.563 158.955L661.563 158.955L661.563 158.954C661.639 157.179 661.715 155.403 661.783 153.628C661.813 152.849 661.768 151.791 661.718 150.6V150.6C661.616 148.178 661.49 145.208 661.924 142.927C660.359 142.897 658.756 142.786 657.286 142.684C655.869 142.586 654.575 142.497 653.558 142.497C652.268 142.497 650.979 142.493 649.689 142.489H649.689H649.689H649.689C646.116 142.478 642.543 142.467 638.97 142.537C638.631 142.544 638.292 142.551 637.953 142.557L637.952 142.557L637.952 142.557C633.032 142.652 628.071 142.748 623.191 143.396C622.905 143.434 622.562 143.507 622.182 143.596C622.716 145.832 622.454 148.983 622.225 151.742C622.113 153.083 622.01 154.331 622.009 155.337C622.002 161.592 622.167 167.824 622.332 174.049L622.332 174.049L622.332 174.049C622.394 176.404 622.457 178.758 622.51 181.112C622.516 181.393 622.509 181.654 622.491 181.895Z" fill="#89C5CC"/>
<path fill-rule="evenodd" clip-rule="evenodd" d="M570.284 185.124C567.157 186.951 568.843 194.259 569.927 196.787C571.708 200.943 575.322 204.195 579.222 206.352C587.104 210.713 598.466 209.554 604.427 217.114C604.489 217.192 606.549 219.232 607.018 216.591C607.403 214.422 603.557 211.112 602.066 210.025C597.827 206.935 592.391 205.938 587.488 204.394C582.259 202.748 576.521 199.713 574.328 194.322C573.552 192.413 575.032 182.337 570.284 185.124" fill="#C1DEE2"/>
<path fill-rule="evenodd" clip-rule="evenodd" d="M641.779 188.637C638.913 189.427 640.808 193.37 640.804 195.345C640.798 197.808 640.011 200.387 638.493 202.352C634.642 207.338 627.104 208.085 621.452 209.514C617.348 210.553 607.529 212.78 607.144 218.33C606.715 224.529 615.384 216.986 616.116 216.676C624.219 213.704 634.701 213.13 640.954 206.588C643.536 203.888 645.062 200.283 645.304 196.563C645.441 194.469 645.464 187.63 641.779 188.637" fill="#C1DEE2"/>
<path fill-rule="evenodd" clip-rule="evenodd" d="M582.561 243.616C582.494 232.148 593.469 225.211 603.393 222.601C615.322 219.459 626.433 227.817 627.84 239.84C629.324 252.529 619.76 262.744 607.148 263.304C596.054 263.797 582.632 255.853 582.561 243.616ZM609.207 228.115C609.852 228.992 610.434 230.392 609.134 231.154C607.884 231.883 607.26 231.007 606.631 230.126C606.234 229.568 605.835 229.009 605.276 228.851C603.826 228.443 601.495 229.968 600.288 230.857C599.797 231.218 599.1 231.995 598.284 232.904C595.688 235.795 591.897 240.017 589.802 236.384C581.446 250.814 602.278 261.612 614.124 256.151C627.134 250.154 624.602 228.23 609.207 228.115Z" fill="#89C5CC"/>
<path fill-rule="evenodd" clip-rule="evenodd" d="M598.289 239.776C598.289 242.408 602.446 242.408 602.446 239.776C602.446 237.174 598.289 237.062 598.289 239.776" fill="#89C5CC"/>
<path fill-rule="evenodd" clip-rule="evenodd" d="M605.603 239.282C605.603 242.506 610.697 242.506 610.697 239.282C610.697 236.094 605.603 235.958 605.603 239.282" fill="#89C5CC"/>
<path fill-rule="evenodd" clip-rule="evenodd" d="M600.369 246.796C596.203 249.246 608.117 254.115 608.587 249.14C608.79 246.993 606.711 247.572 605.325 247.414C603.999 247.263 601.627 246.063 600.369 246.796" fill="#89C5CC"/>
<path fill-rule="evenodd" clip-rule="evenodd" d="M598.562 264.181C598.743 270.44 598.656 276.695 599.843 282.867C600.069 284.039 600.226 288.291 601.152 289.162C603.431 291.304 603.468 287.198 603.557 285.625C603.873 279.989 603.282 274.179 603.151 268.531C603.123 267.316 603.445 264.798 602.871 263.622C601.961 261.754 598.474 261.2 598.562 264.181" fill="#C1DEE2"/>
<path fill-rule="evenodd" clip-rule="evenodd" d="M594.107 259.106C584.973 269.357 572.397 268.602 559.726 269.5C553.032 269.974 546.263 270.948 540.876 275.278C538.371 277.293 536.21 279.816 534.759 282.691C534.124 283.948 531.114 291.201 535.635 289.48C537.238 288.87 538.816 284.074 539.853 282.655C541.828 279.953 544.354 277.722 547.385 276.272C553.233 273.475 560.214 273.522 566.554 273.167C573.181 272.797 580.295 272.45 586.387 269.568C589.252 268.212 591.941 266.522 594.247 264.343C595.071 263.564 596.838 262.241 596.97 261.05C597.12 259.689 595.812 257.196 594.107 259.106" fill="#C1DEE2"/>
<path fill-rule="evenodd" clip-rule="evenodd" d="M547.999 290.57C539.42 290.856 530.852 291.203 522.285 291.746C520.529 291.857 514.675 291.502 516.166 295.1C517.361 297.983 524.5 296.076 526.861 295.936C535.789 295.406 544.753 295.222 553.661 294.419C555.662 294.239 564.708 294.311 560.973 290.764C559.196 289.076 550.454 290.486 547.999 290.57" fill="#89C5CC"/>
<path fill-rule="evenodd" clip-rule="evenodd" d="M510.719 294.707C508.015 298.259 509.258 306.891 509.462 311.16C509.66 315.298 508.856 322.863 514.257 323.504C512.542 323.279 515.559 323.609 516.05 323.635C517.146 323.694 518.248 323.713 519.346 323.725C521.883 323.753 524.421 323.719 526.957 323.668C532.702 323.553 538.462 323.386 544.2 323.068C546.612 322.935 559.696 323.046 560.214 320.541C560.876 317.339 548.331 319.15 546.085 319.253C540.616 319.503 535.138 319.556 529.664 319.628C526.951 319.664 524.235 319.69 521.522 319.637C520.401 319.615 515.965 320.075 515.284 319.328C514.703 318.692 515.156 312.842 515.144 311.947C515.104 309.03 515.107 306.106 515.211 303.19C515.281 301.227 516.342 297.492 515.477 295.648C514.636 293.856 512.185 293.244 510.719 294.707" fill="#89C5CC"/>
<path fill-rule="evenodd" clip-rule="evenodd" d="M554.895 294.873C555.051 301.37 555.1 307.999 556.635 314.353C557.145 316.468 557.861 320.829 559.985 321.924C562.215 323.073 564.14 321.433 564.286 319.223C564.469 316.446 562.982 312.799 562.677 309.949C562.321 306.624 562.114 303.295 561.992 299.954C561.9 297.441 562.663 293.673 560.268 292.053C558.116 290.597 554.825 292.063 554.895 294.873" fill="#89C5CC"/>
<path fill-rule="evenodd" clip-rule="evenodd" d="M571.968 293.286C569.3 295.944 570.493 304.359 570.826 307.774C571.071 310.275 573.808 322.58 577.91 316.164C579.725 313.325 577.42 305.82 577.436 302.511C577.446 300.403 578.193 297.738 577.833 295.713C577.357 293.036 574.389 290.869 571.968 293.286" fill="#89C5CC"/>
<path fill-rule="evenodd" clip-rule="evenodd" d="M590.443 291.092C598.457 290.266 606.481 289.645 614.539 289.568C614.926 289.565 615.333 289.56 615.756 289.555C621.279 289.485 629.579 289.38 633.296 293.527C635.321 295.786 636.238 299.279 637.038 302.324C637.187 302.892 637.332 303.444 637.479 303.97C637.605 304.419 637.769 304.932 637.946 305.485C638.781 308.099 639.91 311.636 638.765 313.826C638.137 315.026 637.126 316.05 635.591 315.625C635.233 315.526 634.952 315.398 634.731 315.248C635.319 315.885 635.58 316.791 635.198 317.678C634.46 319.392 632.128 319.428 630.291 319.457C629.846 319.464 629.429 319.47 629.072 319.5C622.953 320.01 616.806 320.35 610.665 320.404C607.742 320.43 604.818 320.406 601.894 320.382C598.884 320.357 595.875 320.333 592.865 320.362C590.681 320.384 588.456 320.591 586.231 320.799C583.421 321.061 580.611 321.324 577.878 321.212C575.834 321.127 573.651 320.458 574.169 317.816C574.592 315.66 576.622 315.471 578.441 315.303C578.599 315.288 578.756 315.273 578.91 315.258C584.702 314.668 590.498 314.459 596.32 314.48C608.551 314.523 620.772 314.459 633.003 314.395C633.506 314.437 633.979 314.629 634.369 314.922C633.929 314.387 633.937 313.676 633.946 312.918C633.951 312.575 633.955 312.223 633.918 311.873C633.843 311.17 633.774 310.47 633.706 309.771C633.48 307.463 633.255 305.17 632.815 302.848C632.748 302.497 632.684 302.112 632.617 301.703C632.216 299.292 631.686 296.097 629.769 294.795C627.841 293.486 624.061 293.549 621.115 293.598C620.319 293.611 619.585 293.624 618.964 293.607C611.103 293.405 603.196 293.963 595.371 294.674C594.77 294.729 594.168 294.781 593.565 294.834C590.588 295.093 587.595 295.354 584.661 295.887C584.124 295.984 583.304 296.271 582.363 296.599C579.859 297.472 576.503 298.643 575.362 297.353C571.584 293.08 588.188 291.325 590.443 291.092Z" fill="#89C5CC"/>
<path fill-rule="evenodd" clip-rule="evenodd" d="M675.707 281.363C676.055 281.811 676.055 281.811 675.707 281.363ZM621.472 254.887C616.605 257.748 625.614 266.143 627.909 267.441C633.073 270.363 640.169 270.804 645.936 271.625C653.233 272.666 661.176 273.049 668.189 275.44C671.178 276.459 673.077 278.049 675.034 280.493C676.025 281.732 678.412 287.069 680.587 285.805C684.964 283.261 673.169 272.583 670.57 271.435C664.661 268.825 657.677 268.094 651.36 267.081C645.486 266.138 639.486 265.437 633.757 263.775C630.606 262.862 628.367 261.388 626.551 258.567C625.42 256.809 624.491 253.121 621.472 254.887" fill="#C1DEE2"/>
<path fill-rule="evenodd" clip-rule="evenodd" d="M696.091 287.681C690.479 287.805 684.878 288.237 679.278 288.669C676.136 288.911 672.995 289.153 669.852 289.341C668.87 289.4 667.886 289.453 666.901 289.506L666.901 289.506L666.901 289.506C664.133 289.655 661.361 289.804 658.606 290.082C658.187 290.125 657.702 290.164 657.174 290.208C654.834 290.4 651.643 290.662 649.604 291.516C647.735 290.102 644.851 291.304 644.806 293.824C644.729 298.414 644.771 302.922 645.331 307.484C645.461 308.543 646.13 313.905 647.586 316.695C647.068 319.331 649.315 320.07 651.406 320.272C659.505 321.054 667.999 320.447 676.377 319.848C680.639 319.544 684.871 319.241 689.006 319.125C690.381 319.086 691.773 319.07 693.174 319.055C697.746 319.003 702.406 318.951 706.833 318.087C707.011 318.052 707.202 318.018 707.401 317.982C709.151 317.668 711.565 317.235 711.748 315.309C711.859 314.154 711.207 313.096 710.115 312.947C710.19 311.984 710.069 310.933 709.98 310.16L709.98 310.16C709.959 309.98 709.94 309.816 709.926 309.671C709.661 306.992 708.994 304.331 708.335 301.704L708.335 301.704L708.335 301.704C708.187 301.114 708.039 300.525 707.897 299.938C707.739 299.288 707.592 298.515 707.435 297.681C706.878 294.739 706.179 291.041 704.319 289.325C702.369 287.524 699.193 287.604 696.65 287.668C696.459 287.672 696.273 287.677 696.091 287.681ZM705.965 313.234C705.3 311.493 705.106 309.137 704.92 306.899V306.899C704.804 305.493 704.692 304.133 704.469 303.001C704.302 302.151 704.165 301.254 704.026 300.343L704.026 300.343C703.688 298.131 703.336 295.831 702.506 293.892C701.394 291.296 700.404 291.395 698.062 291.63C697.626 291.673 697.144 291.722 696.605 291.758C694.218 291.92 691.833 292.127 689.449 292.333L689.449 292.333C688.305 292.432 687.161 292.531 686.017 292.625C681.121 293.028 676.223 293.337 671.323 293.647L671.323 293.647C668.461 293.827 665.599 294.008 662.736 294.207C660.49 294.364 658.298 294.791 656.115 295.216C654.385 295.553 652.662 295.888 650.921 296.088C650.896 296.683 650.846 297.28 650.799 297.849C650.734 298.623 650.673 299.345 650.686 299.937C650.743 302.558 650.975 305.164 651.206 307.773C651.242 308.175 651.278 308.576 651.313 308.978C651.355 309.459 651.458 310.077 651.573 310.763C651.751 311.823 651.955 313.045 652.001 314.171C652.213 314.169 652.423 314.17 652.631 314.171C652.899 314.172 653.162 314.173 653.414 314.168C659.583 314.061 665.747 313.874 671.912 313.637C672.698 313.606 673.485 313.576 674.272 313.545C679.772 313.331 685.273 313.117 690.777 313.054C692.964 313.029 695.18 313.097 697.402 313.166C700.261 313.255 703.131 313.343 705.965 313.234Z" fill="#89C5CC"/>
</g>
<path fill-rule="evenodd" clip-rule="evenodd" d="M179.935 375.244C186.411 379.147 192.774 381.033 195.76 380.263C203.25 378.333 203.938 350.935 198.143 340.134C192.349 329.333 162.558 324.625 161.057 346.025C160.536 353.453 163.654 360.081 168.262 365.49L160 404H184L179.935 375.244Z" fill="#B28B67"/>
<path fill-rule="evenodd" clip-rule="evenodd" d="M150.593 338.902C149.818 338.134 149.395 337.037 149.03 335.996C148.65 334.914 148.281 333.822 148.028 332.696C147.525 330.447 147.52 327.86 149.124 326.114C150.411 324.713 152.342 324.085 154.124 323.948C155.311 323.857 156.531 324.024 157.669 324.398C158.798 324.769 159.771 325.509 160.866 325.968C160.908 323.544 161.323 321.008 162.553 318.938C163.736 316.947 165.622 315.829 167.771 315.534C169.976 315.23 172.154 315.746 174.128 316.814C174.622 317.081 175.112 317.361 175.581 317.678C175.973 317.944 176.381 318.264 176.841 318.372C177.355 318.492 177.609 318.196 177.942 317.821C178.334 317.382 178.774 316.996 179.24 316.653C181.302 315.137 184.007 314.514 186.396 315.423C187.496 315.841 188.567 316.552 189.313 317.531C189.979 318.404 190.454 319.789 191.372 320.398C191.762 320.656 192.037 320.314 192.392 320.061C192.925 319.681 193.434 319.262 193.973 318.892C194.731 318.373 195.552 317.985 196.43 317.781C197.717 317.484 199.494 317.553 199.862 319.238C200 319.871 199.894 320.548 199.85 321.186C199.789 322.061 199.725 322.936 199.649 323.811C199.591 324.474 199.518 325.115 199.393 325.767C199.326 326.115 199.117 326.763 199.266 327.111C199.452 327.546 200.311 327.298 200.679 327.313C201.404 327.343 202.132 327.47 202.803 327.78C203.322 328.021 203.869 328.374 204.088 328.969C204.223 329.335 204.187 329.711 204.124 330.088C204.047 330.539 204.135 330.779 204.192 331.235C205.166 330.755 208.541 329.69 208.965 331.435C209.107 332.016 208.785 332.673 208.539 333.163C208.108 334.023 207.543 334.809 206.966 335.558C205.761 337.121 204.323 338.47 202.776 339.623C204.589 340.429 205.062 342.806 203.493 344.222C202.8 344.848 201.868 344.987 200.994 344.947C200.674 344.932 200.213 344.809 199.961 344.865C199.825 344.895 199.68 345.01 199.493 345.022C198.259 345.107 196.866 344.81 195.66 344.536C193.512 344.048 191.477 343.03 189.816 341.48C189.39 341.082 189.038 340.853 188.464 340.859C187.962 340.864 187.468 341.002 186.966 341.015C185.638 341.048 184.44 340.399 183.206 339.967C183.13 341.633 182.655 343.469 181.974 344.969C181.418 346.191 180.257 346.369 179.116 346.476C175.467 346.82 171.806 346.437 168.152 346.442C171.689 347.241 175.343 347.571 178.848 348.511C180.432 348.936 179.222 350.004 178.545 350.744C177.43 351.963 176.6 353.474 176.025 355.065C174.295 352.81 171.237 351.324 168.528 352.017C165.535 352.782 163.427 356.83 165.341 359.74C166.453 361.429 168.459 362.081 170.129 362.807C168.827 364.161 168.511 366.161 167.727 367.846C167.341 368.677 166.798 369.617 165.933 369.906C165.613 370.013 165.238 370.022 164.986 370.283C164.673 370.606 164.599 370.967 164.199 371.245C162.606 372.352 160.117 372.267 158.705 370.821C157.428 369.514 157.76 367.445 158.827 366.12C157.129 365.412 154.036 364.502 154.711 361.857C151.032 361.613 142.1 355.646 147.037 351.286C144.327 349.755 141.838 346.012 143.578 342.713C144.919 340.172 148.036 339.036 150.593 338.902" fill="#191847"/>
<path fill-rule="evenodd" clip-rule="evenodd" d="M116.623 529H193.877L204 653H89L116.623 529Z" fill="#C5CFD6"/>
<path fill-rule="evenodd" clip-rule="evenodd" d="M116.623 529H140.383L154.604 653H89L116.623 529Z" fill="black" fill-opacity="0.1"/>
<path fill-rule="evenodd" clip-rule="evenodd" d="M236.323 553.566C227.642 571.978 214.076 616.672 214.076 616.672L225.593 621.933C225.593 621.933 254.814 574.952 272.672 542.836C271.84 550.066 270.993 558.206 270.207 566.762C268.346 587.033 270.206 630.826 271.207 643.477C271.836 651.427 282.639 649.762 283.648 643.456C283.819 642.388 284.515 638.639 285.553 633.044C290.646 605.612 303.976 533.817 304 516.238C304.009 509.164 290.19 502.81 281.953 507.756C276.295 501.719 265.587 498.239 259.436 508.212C255.525 514.551 246.233 532.549 236.323 553.566Z" fill="#B28B67"/>
<path fill-rule="evenodd" clip-rule="evenodd" d="M214.9 600.125L254.427 506.487C263.896 491.255 290.446 509.587 287.217 518.422C279.885 538.479 242.599 603.414 240.415 609.39L214.9 600.125Z" fill="#1F28CF"/>
<path fill-rule="evenodd" clip-rule="evenodd" d="M215.664 611.185C214.971 610.241 213.63 610.017 212.734 610.771C211.099 612.146 208.748 614.264 207.899 615.734C206.547 618.076 204.733 623.021 204.733 623.021C207.45 624.59 253.578 651.222 253.578 651.222C253.578 651.222 259.116 646.027 255.304 643.156C251.491 640.286 249.012 638.315 249.012 638.315L232.152 615.087C231.821 614.631 231.179 614.538 230.733 614.882L227.23 617.579C227.23 617.579 222.409 617.158 220.035 615.788C218.589 614.953 216.824 612.767 215.664 611.185Z" fill="#E4E4E4"/>
<path fill-rule="evenodd" clip-rule="evenodd" d="M271.45 637.284C270.378 636.813 269.104 637.29 268.705 638.391C267.977 640.398 267 643.409 267 645.106C267 647.811 267.901 653 267.901 653C271.039 653 324.303 653 324.303 653C324.303 653 326.502 645.732 321.765 645.152C317.028 644.573 313.895 644.106 313.895 644.106L287.68 632.419C287.165 632.189 286.563 632.43 286.348 632.951L284.663 637.039C284.663 637.039 280.278 639.085 277.537 639.085C275.868 639.085 273.246 638.074 271.45 637.284Z" fill="#E4E4E4"/>
<path fill-rule="evenodd" clip-rule="evenodd" d="M306.77 523.433C306.77 550 294.154 611.97 294.146 617.82L267 617.841C267 617.841 272.96 534.898 271.227 534.004C269.493 533.111 200.176 540.925 179.386 540.925C149.408 540.925 137.006 522.02 136 487H195.386C207.478 488.294 270.549 501.015 293.972 505.388C304 507.261 306.77 516.115 306.77 523.433Z" fill="#2B44FF"/>
<path fill-rule="evenodd" clip-rule="evenodd" d="M239.347 405.69L204.638 424.7L217.455 438.458L242.676 415.365C255.963 411.704 262.039 409.025 260.904 407.329C259.948 405.9 258.405 405.949 256.984 405.995C255.878 406.031 254.845 406.064 254.22 405.394C252.794 403.863 255.515 398.51 258.314 393.541C261.114 388.573 258.12 389.005 256.409 389.72C250.807 393.512 245.12 398.835 239.347 405.69ZM274.246 432.364L259 440.74L259.868 456.04C259.868 456.04 269.743 448.913 278.238 446.544C289.07 443.524 293.453 441.218 298.746 434.473C301.578 430.864 303.982 423.61 301.286 421.248C300.252 420.341 296.399 422.482 292.468 424.667C289.472 426.332 286.43 428.022 284.556 428.408C282.033 428.927 282.329 425.657 282.565 423.044C282.734 421.17 282.873 419.633 281.918 420.077C277.455 420.154 274.246 432.364 274.246 432.364Z" fill="#997659"/>
<path fill-rule="evenodd" clip-rule="evenodd" d="M187.734 420.466C199.892 420.337 216.104 417.769 233.403 406.789L240.196 421.939C228.264 433.781 211.487 443.51 196.816 443.098C185.256 442.773 179.347 428.789 187.734 420.466Z" fill="#2026A2"/>
<path fill-rule="evenodd" clip-rule="evenodd" d="M154.944 524.259C143.386 522.752 132.766 521.367 126.473 522.606C119.411 499.673 125.275 485.234 130.688 471.905C133.95 463.871 137.049 456.241 137.055 447.397C137.075 421.642 157.754 382 160.797 382H161.67H185.783H188.544C189.784 397.937 195.079 415.193 200.407 432.56C201.651 436.615 202.898 440.677 204.095 444.729C224.26 449.307 269.036 433.373 269.036 433.373C269.036 433.373 280.339 456.759 279.486 466.717C253.424 480.331 231.086 486.401 212.683 486.802C213.268 497.721 211.939 508.112 207.474 517.606C201.491 530.327 176.576 527.079 154.944 524.259Z" fill="#1F28CF"/>
<path fill-rule="evenodd" clip-rule="evenodd" d="M619 414L582.745 541.227L556.293 635H537L565.109 414H619Z" fill="#191847"/>
<path fill-rule="evenodd" clip-rule="evenodd" d="M628.696 414C629.534 479.574 632.394 515.34 633.274 521.298C634.155 527.256 647.468 565.156 673.214 635H653.228C620.451 567.997 602.155 530.096 598.338 521.298C594.521 512.5 582.742 476.734 565 414H628.696Z" fill="#2F3676"/>
<path fill-rule="evenodd" clip-rule="evenodd" d="M675 653L674 632L653 632C638.064 642.5 614 649 614 649V653H652L665 651V653H675Z" fill="#191847"/>
<path fill-rule="evenodd" clip-rule="evenodd" d="M559 653L558 632L537 632C522.064 642.5 498 649 498 649V653H536L549 651V653H559Z" fill="#191847"/>
<path fill-rule="evenodd" clip-rule="evenodd" d="M579.065 284.244C572.589 288.147 566.226 290.033 563.24 289.263C555.75 287.333 555.062 259.935 560.857 249.134C566.651 238.333 596.442 233.625 597.943 255.025C598.464 262.453 595.346 269.081 590.738 274.49L599 313H575L579.065 284.244Z" fill="#B28B67"/>
<path fill-rule="evenodd" clip-rule="evenodd" d="M577.865 257.389C575.789 254.298 573.796 251.94 571.203 250.571C560.652 250.737 559.417 248.846 559.417 242.471C561.121 241.251 567.134 239.198 573.868 238.62C577.303 237.637 581.373 237.822 585.293 239.462C590.132 240.835 594.23 243.792 596.04 249.328C602.588 260.629 597.618 272.392 590.92 276.411C589.137 274.299 587.581 272.251 586.193 270.292C587.308 269.202 588 267.682 588 266C588 262.686 585.314 260 582 260C581.757 260 581.516 260.014 581.28 260.042C581.131 264.185 580.518 278.202 578.906 283.071C577.005 288.811 565.917 290.221 562.049 290.221C558.709 290.221 558.822 287.057 558.904 284.79C558.916 284.464 558.927 284.156 558.927 283.879C558.927 283.3 559.68 283.301 560.531 283.303C561.636 283.305 562.906 283.308 562.906 282.04C562.906 280.658 560.996 279.597 559.287 278.649C558.221 278.057 557.233 277.508 556.835 276.952C555.582 275.197 555.159 272.831 557.051 272.831C558.084 272.831 559.503 273.427 561.209 274.144C563.785 275.226 567.018 276.584 570.574 276.584C576.45 276.584 577.848 257.626 577.865 257.389Z" fill="#191847"/>
<path fill-rule="evenodd" clip-rule="evenodd" d="M478.64 287.963L516.544 299.341L506.866 315.463L477.395 298.119C463.638 297.3 457.138 295.943 457.895 294.048C458.533 292.451 460.052 292.179 461.452 291.928C462.542 291.733 463.559 291.551 464.031 290.765C465.107 288.971 461.333 284.302 457.561 280.023C453.79 275.745 456.808 275.546 458.631 275.889C464.899 278.434 471.569 282.458 478.64 287.963ZM487.995 389.592L519.893 366.169L526.944 383.599L495.357 396.698C486.423 407.192 481.428 411.567 480.37 409.822C479.479 408.351 480.176 406.974 480.818 405.706C481.318 404.717 481.784 403.795 481.441 402.946C480.656 401.006 474.655 401.211 468.969 401.648C463.282 402.085 464.939 399.555 466.311 398.306C472.115 394.831 479.343 391.927 487.995 389.592Z" fill="#B28B67"/>
<path fill-rule="evenodd" clip-rule="evenodd" d="M569.44 303.086C552.069 335.476 526.95 360.305 490.535 386.115L504.323 401.662C544.982 386.552 566.441 377.436 576.979 346.834C579.624 339.154 581.473 314.67 583.059 301.788L569.44 303.086Z" fill="#4D519C"/>
<path fill-rule="evenodd" clip-rule="evenodd" d="M618 411H541C541 411 567.163 331.208 567.73 301.472C567.749 300.461 569.616 298.68 570.441 298.913C579.5 301.472 589.828 297 589.828 297C608.083 326.358 614.395 362.505 618 411Z" fill="#F2F2F2"/>
<path fill-rule="evenodd" clip-rule="evenodd" d="M570.514 341.791C558.488 393.377 559.042 435.606 585.593 435.606H626.649C633.17 391.784 616.032 331.024 600.144 300.377C599.537 299.206 598.246 297 595.203 297H583.273C583.268 297.016 583.263 297.032 583.257 297.047C579.668 297.077 575.714 297.208 571.433 297.35C549.392 298.082 518.659 299.102 484.077 288L480 308.373C511.213 328.448 542.819 343.999 570.514 341.791Z" fill="#737AC0"/>
</svg>
